<svg width="57" height="56" viewBox="0 0 57 56" fill="none" xmlns="http://www.w3.org/2000/svg">
<path d="M34 32.9531V36H22.0938V33.4219L27.5781 27.6562C28.0625 27.1016 28.4531 26.6055 28.75 26.168C29.0469 25.7227 29.2617 25.3203 29.3945 24.9609C29.5352 24.6016 29.6055 24.2773 29.6055 23.9883C29.6055 23.4961 29.5312 23.0859 29.3828 22.7578C29.2422 22.4219 29.0312 22.168 28.75 21.9961C28.4766 21.8242 28.1367 21.7383 27.7305 21.7383C27.3242 21.7383 26.9688 21.8555 26.6641 22.0898C26.3594 22.3242 26.1211 22.6445 25.9492 23.0508C25.7852 23.457 25.7031 23.9141 25.7031 24.4219H21.7422C21.7422 23.375 21.9961 22.418 22.5039 21.5508C23.0195 20.6836 23.7344 19.9922 24.6484 19.4766C25.5625 18.9531 26.6211 18.6914 27.8242 18.6914C29.082 18.6914 30.1367 18.8867 30.9883 19.2773C31.8398 19.668 32.4805 20.2344 32.9102 20.9766C33.3477 21.7109 33.5664 22.5977 33.5664 23.6367C33.5664 24.2305 33.4727 24.8008 33.2852 25.3477C33.0977 25.8945 32.8281 26.4375 32.4766 26.9766C32.125 27.5078 31.6953 28.0547 31.1875 28.6172C30.6875 29.1797 30.1172 29.7773 29.4766 30.4102L27.2734 32.9531H34Z" fill="white"/>
<path d="M28.5 1.4C28.5 0.626801 29.1272 -0.00365191 29.8994 0.034989C34.2789 0.254125 38.5527 1.49933 42.3728 3.67832C46.599 6.08888 50.1241 9.55906 52.6008 13.7468C55.0774 17.9346 56.4201 22.6955 56.4965 27.5602C56.573 32.4249 55.3805 37.2256 53.0366 41.4891C50.6927 45.7526 47.2783 49.3318 43.13 51.8739C38.9816 54.416 34.2424 55.8334 29.3795 55.9862C24.5166 56.139 19.6978 55.0221 15.398 52.7454C11.5112 50.6875 8.16985 47.7462 5.63822 44.166C5.19182 43.5347 5.38805 42.6673 6.04088 42.253C6.69371 41.8387 7.55566 42.0347 8.00557 42.6635C10.2741 45.8341 13.2515 48.4407 16.7082 50.2709C20.578 52.3199 24.9149 53.3251 29.2916 53.1876C33.6682 53.05 37.9334 51.7744 41.667 49.4865C45.4005 47.1986 48.4734 43.9773 50.5829 40.1402C52.6924 36.303 53.7657 31.9824 53.6969 27.6042C53.6281 23.2259 52.4197 18.9412 50.1907 15.1722C47.9617 11.4032 44.7891 8.27999 40.9856 6.11049C37.5881 4.1726 33.7919 3.05535 29.8993 2.83888C29.1273 2.79595 28.5 2.1732 28.5 1.4Z" fill="url(#paint0_linear_2_15560)"/>
<path d="M56.5 28C56.5 43.464 43.964 56 28.5 56C13.036 56 0.5 43.464 0.5 28C0.5 12.536 13.036 0 28.5 0C43.964 0 56.5 12.536 56.5 28ZM3.3 28C3.3 41.9176 14.5824 53.2 28.5 53.2C42.4176 53.2 53.7 41.9176 53.7 28C53.7 14.0824 42.4176 2.8 28.5 2.8C14.5824 2.8 3.3 14.0824 3.3 28Z" fill="white" fill-opacity="0.2"/>
<defs>
<linearGradient id="paint0_linear_2_15560" x1="28.5" y1="0" x2="28.5" y2="56" gradientUnits="userSpaceOnUse">
<stop stop-color="white"/>
<stop offset="1" stop-color="#FAD557"/>
</linearGradient>
</defs>
</svg>
