<svg width="57" height="56" viewBox="0 0 57 56" fill="none" xmlns="http://www.w3.org/2000/svg">
<path d="M30.8359 18.9375V36H26.8867V23.3906L22.9961 24.5273V21.5273L30.4727 18.9375H30.8359Z" fill="white"/>
<path d="M56.5 28C56.5 43.464 43.964 56 28.5 56C13.036 56 0.5 43.464 0.5 28C0.5 12.536 13.036 0 28.5 0C43.964 0 56.5 12.536 56.5 28ZM3.3 28C3.3 41.9176 14.5824 53.2 28.5 53.2C42.4176 53.2 53.7 41.9176 53.7 28C53.7 14.0824 42.4176 2.8 28.5 2.8C14.5824 2.8 3.3 14.0824 3.3 28Z" fill="white" fill-opacity="0.2"/>
<path d="M28.5 1.4C28.5 0.626801 29.1272 -0.00365401 29.8995 0.0349631C36.7406 0.377069 43.2385 3.21813 48.1429 8.04612C53.3807 13.2023 56.3811 20.2112 56.4965 27.5602C56.612 34.9092 53.8332 42.0089 48.7599 47.327C43.6867 52.6452 36.7258 55.7553 29.3795 55.9862C22.0332 56.217 14.8908 53.5501 9.49357 48.561C4.09638 43.5719 0.877306 36.6607 0.531083 29.319C0.184859 21.9772 2.73926 14.7938 7.64298 9.31887C12.2346 4.19246 18.5412 0.949005 25.3474 0.178018C26.1156 0.0909883 26.7812 0.680815 26.8298 1.45249C26.8783 2.22416 26.2912 2.88507 25.5235 2.97637C19.4511 3.69844 13.8298 6.60818 9.72868 11.187C5.31533 16.1144 3.01637 22.5795 3.32798 29.1871C3.63958 35.7946 6.53675 42.0147 11.3942 46.5049C16.2517 50.9951 22.6799 53.3953 29.2915 53.1876C35.9032 52.9798 42.168 50.1807 46.734 45.3943C51.2999 40.608 53.8008 34.2183 53.6969 27.6042C53.593 20.9901 50.8926 14.6821 46.1786 10.0415C41.7981 5.72925 36.0051 3.17822 29.8994 2.83885C29.1274 2.79595 28.5 2.1732 28.5 1.4Z" fill="url(#paint0_linear_2_15619)"/>
<defs>
<linearGradient id="paint0_linear_2_15619" x1="28.5" y1="0" x2="28.5" y2="56" gradientUnits="userSpaceOnUse">
<stop stop-color="white"/>
<stop offset="1" stop-color="#FAD557"/>
</linearGradient>
</defs>
</svg>
