<svg width="59" height="56" viewBox="0 0 59 56" fill="none" xmlns="http://www.w3.org/2000/svg">
<mask id="path-1-outside-1_1053_16164" maskUnits="userSpaceOnUse" x="-0.5" y="10" width="62" height="36" fill="black">
<rect fill="white" x="-0.5" y="10" width="62" height="36"/>
<path d="M9.04688 43.9375C6.28646 43.9375 4.33333 42.4531 3.1875 39.4844C2.58854 38 2.28906 36.3333 2.28906 34.4844C2.28906 32.7396 2.5625 30.8255 3.10938 28.7422C4.02083 25.1745 5.64844 21.9062 7.99219 18.9375C10.8307 15.3177 13.8516 13.5078 17.0547 13.5078C19.8411 13.5078 21.8073 15.0443 22.9531 18.1172L18.6172 22.7656C18.1484 22.0625 17.4583 21.7109 16.5469 21.7109C14.776 21.7109 13.1094 22.9349 11.5469 25.3828C10.375 27.2318 9.5026 29.276 8.92969 31.5156C8.69531 32.401 8.57812 33.1953 8.57812 33.8984C8.57812 34.9661 8.85156 35.8255 9.39844 36.4766C9.9974 37.2057 10.8307 37.5703 11.8984 37.5703C13.1224 37.5703 14.2552 37.0104 15.2969 35.8906C16.1302 35.0052 16.8073 33.8854 17.3281 32.5312C15.401 32.9219 13.6172 33.3255 11.9766 33.7422L13.2266 27.9609L23.5781 25.7734C23.6302 27.4661 23.2656 29.4062 22.4844 31.5938C21.7812 33.5208 20.9089 35.2917 19.8672 36.9062C16.8203 41.5938 13.2135 43.9375 9.04688 43.9375ZM36.4688 12.4531C39.2292 12.4531 41.1823 13.9896 42.3281 17.0625C42.9271 18.651 43.2266 20.3958 43.2266 22.2969C43.2266 24.1198 42.9531 26.099 42.4062 28.2344C41.4427 31.8802 39.776 35.2396 37.4062 38.3125C34.5156 42.0625 31.4557 43.9375 28.2266 43.9375C25.4401 43.9375 23.4609 42.401 22.2891 39.3281C21.7161 37.8177 21.4297 36.125 21.4297 34.25C21.4297 32.401 21.7161 30.3958 22.2891 28.2344C23.2526 24.5625 24.9062 21.1901 27.25 18.1172C30.1406 14.3411 33.2135 12.4531 36.4688 12.4531ZM35.0625 22.1406C33.6302 22.1406 32.1719 23.3125 30.6875 25.6562C29.4896 27.5052 28.6562 29.3151 28.1875 31.0859C27.9531 32.0234 27.8359 32.8698 27.8359 33.625C27.8359 34.6927 28.0964 35.5651 28.6172 36.2422C29.2161 36.9974 30.0495 37.375 31.1172 37.375C32.5755 37.375 33.8906 36.6068 35.0625 35.0703C36 33.8464 36.6771 32.401 37.0938 30.7344C37.5885 28.7812 37.6927 26.8542 37.4062 24.9531C37.0938 23.0781 36.3125 22.1406 35.0625 22.1406ZM45.6484 36.6328C46.5599 36.5026 47.3672 36.6328 48.0703 37.0234C48.9036 37.4401 49.3203 38.0911 49.3203 38.9766C49.3203 40.1745 48.6823 41.2682 47.4062 42.2578C46.4167 43.0391 45.3359 43.5078 44.1641 43.6641C43.2266 43.7943 42.4193 43.6901 41.7422 43.3516C40.9349 42.9349 40.5312 42.2839 40.5312 41.3984C40.5312 40.2005 41.1432 39.0938 42.3672 38.0781C43.3568 37.2708 44.4505 36.7891 45.6484 36.6328ZM50.0625 12.3359L58.2266 13.7031C56.0651 17.5833 54.4766 20.6172 53.4609 22.8047C52.0807 25.7995 50.8568 29.0417 49.7891 32.5312L44.3594 32.2969L50.0625 12.3359Z"/>
</mask>
<path d="M9.04688 43.9375C6.28646 43.9375 4.33333 42.4531 3.1875 39.4844C2.58854 38 2.28906 36.3333 2.28906 34.4844C2.28906 32.7396 2.5625 30.8255 3.10938 28.7422C4.02083 25.1745 5.64844 21.9062 7.99219 18.9375C10.8307 15.3177 13.8516 13.5078 17.0547 13.5078C19.8411 13.5078 21.8073 15.0443 22.9531 18.1172L18.6172 22.7656C18.1484 22.0625 17.4583 21.7109 16.5469 21.7109C14.776 21.7109 13.1094 22.9349 11.5469 25.3828C10.375 27.2318 9.5026 29.276 8.92969 31.5156C8.69531 32.401 8.57812 33.1953 8.57812 33.8984C8.57812 34.9661 8.85156 35.8255 9.39844 36.4766C9.9974 37.2057 10.8307 37.5703 11.8984 37.5703C13.1224 37.5703 14.2552 37.0104 15.2969 35.8906C16.1302 35.0052 16.8073 33.8854 17.3281 32.5312C15.401 32.9219 13.6172 33.3255 11.9766 33.7422L13.2266 27.9609L23.5781 25.7734C23.6302 27.4661 23.2656 29.4062 22.4844 31.5938C21.7812 33.5208 20.9089 35.2917 19.8672 36.9062C16.8203 41.5938 13.2135 43.9375 9.04688 43.9375ZM36.4688 12.4531C39.2292 12.4531 41.1823 13.9896 42.3281 17.0625C42.9271 18.651 43.2266 20.3958 43.2266 22.2969C43.2266 24.1198 42.9531 26.099 42.4062 28.2344C41.4427 31.8802 39.776 35.2396 37.4062 38.3125C34.5156 42.0625 31.4557 43.9375 28.2266 43.9375C25.4401 43.9375 23.4609 42.401 22.2891 39.3281C21.7161 37.8177 21.4297 36.125 21.4297 34.25C21.4297 32.401 21.7161 30.3958 22.2891 28.2344C23.2526 24.5625 24.9062 21.1901 27.25 18.1172C30.1406 14.3411 33.2135 12.4531 36.4688 12.4531ZM35.0625 22.1406C33.6302 22.1406 32.1719 23.3125 30.6875 25.6562C29.4896 27.5052 28.6562 29.3151 28.1875 31.0859C27.9531 32.0234 27.8359 32.8698 27.8359 33.625C27.8359 34.6927 28.0964 35.5651 28.6172 36.2422C29.2161 36.9974 30.0495 37.375 31.1172 37.375C32.5755 37.375 33.8906 36.6068 35.0625 35.0703C36 33.8464 36.6771 32.401 37.0938 30.7344C37.5885 28.7812 37.6927 26.8542 37.4062 24.9531C37.0938 23.0781 36.3125 22.1406 35.0625 22.1406ZM45.6484 36.6328C46.5599 36.5026 47.3672 36.6328 48.0703 37.0234C48.9036 37.4401 49.3203 38.0911 49.3203 38.9766C49.3203 40.1745 48.6823 41.2682 47.4062 42.2578C46.4167 43.0391 45.3359 43.5078 44.1641 43.6641C43.2266 43.7943 42.4193 43.6901 41.7422 43.3516C40.9349 42.9349 40.5312 42.2839 40.5312 41.3984C40.5312 40.2005 41.1432 39.0938 42.3672 38.0781C43.3568 37.2708 44.4505 36.7891 45.6484 36.6328ZM50.0625 12.3359L58.2266 13.7031C56.0651 17.5833 54.4766 20.6172 53.4609 22.8047C52.0807 25.7995 50.8568 29.0417 49.7891 32.5312L44.3594 32.2969L50.0625 12.3359Z" fill="#FAD557"/>
<path d="M3.1875 39.4844L5.05335 38.7642L5.04788 38.7501L5.0422 38.736L3.1875 39.4844ZM3.10938 28.7422L5.04388 29.25L5.04714 29.2372L3.10938 28.7422ZM7.99219 18.9375L9.56196 20.1768L9.566 20.1716L7.99219 18.9375ZM22.9531 18.1172L24.4156 19.4814L25.2591 18.5771L24.8271 17.4184L22.9531 18.1172ZM18.6172 22.7656L16.9531 23.875L18.3554 25.9784L20.0797 24.1298L18.6172 22.7656ZM11.5469 25.3828L9.86102 24.3067L9.8576 24.3121L11.5469 25.3828ZM8.92969 31.5156L10.8631 32.0274L10.8652 32.0194L10.8673 32.0113L8.92969 31.5156ZM9.39844 36.4766L10.9439 35.2071L10.9369 35.1986L10.9298 35.1902L9.39844 36.4766ZM15.2969 35.8906L13.8405 34.5199L13.8325 34.5284L15.2969 35.8906ZM17.3281 32.5312L19.1948 33.2492L20.5034 29.8469L16.9308 30.5711L17.3281 32.5312ZM11.9766 33.7422L10.0217 33.3195L9.33937 36.4754L12.4689 35.6806L11.9766 33.7422ZM13.2266 27.9609L12.8131 26.0042L11.5455 26.272L11.2717 27.5383L13.2266 27.9609ZM23.5781 25.7734L25.5772 25.7119L25.5037 23.3224L23.1646 23.8167L23.5781 25.7734ZM22.4844 31.5938L24.3633 32.2793L24.3679 32.2664L22.4844 31.5938ZM19.8672 36.9062L21.5441 37.9962L21.5478 37.9905L19.8672 36.9062ZM9.04688 41.9375C8.04627 41.9375 7.30729 41.6768 6.72189 41.2319C6.11616 40.7715 5.53172 40.0036 5.05335 38.7642L1.32165 40.2045C1.98912 41.9339 2.95415 43.3925 4.30155 44.4165C5.66927 45.456 7.28706 45.9375 9.04688 45.9375V41.9375ZM5.0422 38.736C4.5529 37.5234 4.28906 36.1162 4.28906 34.4844H0.289062C0.289062 36.5505 0.624178 38.4766 1.3328 40.2328L5.0422 38.736ZM4.28906 34.4844C4.28906 32.9455 4.53074 31.2046 5.04384 29.25L1.17491 28.2344C0.594257 30.4464 0.289062 32.5337 0.289062 34.4844H4.28906ZM5.04714 29.2372C5.88743 25.9481 7.38674 22.9321 9.56195 20.1768L6.42242 17.6982C3.91014 20.8804 2.15423 24.4009 1.17161 28.2471L5.04714 29.2372ZM9.566 20.1716C12.1984 16.8147 14.7003 15.5078 17.0547 15.5078V11.5078C13.0028 11.5078 9.46303 13.8207 6.41837 17.7034L9.566 20.1716ZM17.0547 15.5078C18.0566 15.5078 18.7973 15.7747 19.3877 16.236C20.0017 16.7159 20.5957 17.5193 21.0792 18.816L24.8271 17.4184C24.1647 15.6422 23.2028 14.1409 21.8506 13.0843C20.4749 12.0092 18.8392 11.5078 17.0547 11.5078V15.5078ZM21.4906 16.753L17.1547 21.4014L20.0797 24.1298L24.4156 19.4814L21.4906 16.753ZM20.2813 21.6562C19.4083 20.3468 18.0647 19.7109 16.5469 19.7109V23.7109C16.7427 23.7109 16.822 23.7474 16.8402 23.7567C16.8523 23.7628 16.8912 23.7821 16.9531 23.875L20.2813 21.6562ZM16.5469 19.7109C13.7411 19.7109 11.5494 21.6616 9.86103 24.3067L13.2327 26.4589C14.6693 24.2082 15.811 23.7109 16.5469 23.7109V19.7109ZM9.8576 24.3121C8.5671 26.3483 7.61413 28.5883 6.99208 31.02L10.8673 32.0113C11.3911 29.9638 12.1829 28.1153 13.2362 26.4535L9.8576 24.3121ZM6.99628 31.0038C6.73023 32.0089 6.57812 32.9796 6.57812 33.8984H10.5781C10.5781 33.411 10.6604 32.7932 10.8631 32.0274L6.99628 31.0038ZM6.57812 33.8984C6.57812 35.313 6.94643 36.667 7.86703 37.7629L10.9298 35.1902C10.7567 34.984 10.5781 34.6193 10.5781 33.8984H6.57812ZM7.85298 37.746C8.88473 39.0021 10.3208 39.5703 11.8984 39.5703V35.5703C11.3406 35.5703 11.1101 35.4094 10.9439 35.2071L7.85298 37.746ZM11.8984 39.5703C13.8105 39.5703 15.4421 38.6709 16.7612 37.2528L13.8325 34.5284C13.0683 35.3499 12.4343 35.5703 11.8984 35.5703V39.5703ZM16.7533 37.2614C17.7952 36.1543 18.5985 34.7997 19.1948 33.2492L15.4614 31.8133C15.0161 32.9711 14.4652 33.8561 13.8405 34.5199L16.7533 37.2614ZM16.9308 30.5711C14.9768 30.9672 13.1609 31.3779 11.4843 31.8037L12.4689 35.6806C14.0735 35.2731 15.8253 34.8766 17.7254 34.4914L16.9308 30.5711ZM13.9314 34.1649L15.1814 28.3836L11.2717 27.5383L10.0217 33.3195L13.9314 34.1649ZM13.6401 29.9177L23.9916 27.7302L23.1646 23.8167L12.8131 26.0042L13.6401 29.9177ZM21.5791 25.8349C21.6212 27.2038 21.3272 28.8873 20.6009 30.9211L24.3679 32.2664C25.204 29.9252 25.6392 27.7285 25.5772 25.7119L21.5791 25.8349ZM20.6055 30.9082C19.95 32.7048 19.1423 34.3407 18.1866 35.822L21.5478 37.9905C22.6754 36.2427 23.6125 34.3368 24.3632 32.2793L20.6055 30.9082ZM18.1903 35.8163C15.3723 40.1517 12.3145 41.9375 9.04688 41.9375V45.9375C14.1126 45.9375 18.2683 43.0358 21.5441 37.9962L18.1903 35.8163ZM42.3281 17.0625L40.4542 17.7613L40.4567 17.7681L42.3281 17.0625ZM42.4062 28.2344L44.3399 28.7454L44.3418 28.738L44.3437 28.7306L42.4062 28.2344ZM37.4062 38.3125L35.8225 37.0911L35.8222 37.0915L37.4062 38.3125ZM22.2891 39.3281L20.4191 40.0374L20.4203 40.0408L22.2891 39.3281ZM22.2891 28.2344L24.2223 28.7468L24.2236 28.742L22.2891 28.2344ZM27.25 18.1172L25.6619 16.9015L25.6598 16.9043L27.25 18.1172ZM30.6875 25.6562L32.366 26.7437L32.3716 26.7351L32.3771 26.7264L30.6875 25.6562ZM28.1875 31.0859L26.2541 30.5742L26.2506 30.5875L26.2472 30.6009L28.1875 31.0859ZM28.6172 36.2422L27.0319 37.4616L27.041 37.4734L27.0502 37.485L28.6172 36.2422ZM35.0625 35.0703L33.4747 33.8542L33.4723 33.8574L35.0625 35.0703ZM37.0938 30.7344L35.155 30.2432L35.1535 30.2493L37.0938 30.7344ZM37.4062 24.9531L39.3839 24.6551L39.3816 24.6397L39.379 24.6243L37.4062 24.9531ZM36.4688 14.4531C37.4531 14.4531 38.1825 14.7173 38.7673 15.1774C39.3769 15.6569 39.9695 16.4616 40.4542 17.7613L44.2021 16.3637C43.5409 14.5905 42.584 13.0905 41.2405 12.0336C39.8721 10.9571 38.2449 10.4531 36.4688 10.4531V14.4531ZM40.4567 17.7681C40.9611 19.1057 41.2266 20.6082 41.2266 22.2969H45.2266C45.2266 20.1835 44.8931 18.1963 44.1995 16.3569L40.4567 17.7681ZM41.2266 22.2969C41.2266 23.9219 40.9825 25.7324 40.4688 27.7382L44.3437 28.7306C44.9238 26.4656 45.2266 24.3177 45.2266 22.2969H41.2266ZM40.4726 27.7233C39.5792 31.1039 38.0343 34.223 35.8225 37.0911L38.99 39.5339C41.5177 36.2561 43.3062 32.6565 44.3399 28.7454L40.4726 27.7233ZM35.8222 37.0915C33.1265 40.5887 30.5863 41.9375 28.2266 41.9375V45.9375C32.3251 45.9375 35.9048 43.5363 38.9903 39.5335L35.8222 37.0915ZM28.2266 41.9375C27.2248 41.9375 26.4781 41.6706 25.8788 41.2053C25.2559 40.7218 24.653 39.914 24.1578 38.6155L20.4203 40.0408C21.097 41.8151 22.0696 43.3121 23.4259 44.365C24.8057 45.4362 26.4418 45.9375 28.2266 45.9375V41.9375ZM24.1591 38.6188C23.6847 37.3683 23.4297 35.921 23.4297 34.25H19.4297C19.4297 36.329 19.7476 38.2671 20.4191 40.0374L24.1591 38.6188ZM23.4297 34.25C23.4297 32.6056 23.6848 30.7747 24.2223 28.7468L20.3558 27.722C19.7475 30.017 19.4297 32.1964 19.4297 34.25H23.4297ZM24.2236 28.742C25.1188 25.3303 26.6537 22.1968 28.8402 19.3301L25.6598 16.9043C23.1588 20.1834 21.3864 23.7947 20.3546 27.7267L24.2236 28.742ZM28.8381 19.3329C31.5323 15.8134 34.0844 14.4531 36.4688 14.4531V10.4531C32.3426 10.4531 28.7489 12.8689 25.6619 16.9015L28.8381 19.3329ZM35.0625 20.1406C32.5018 20.1406 30.5227 22.1785 28.9979 24.5861L32.3771 26.7264C33.821 24.4465 34.7586 24.1406 35.0625 24.1406V20.1406ZM29.009 24.5688C27.7188 26.5602 26.7865 28.5626 26.2541 30.5742L30.1209 31.5977C30.526 30.0676 31.2604 28.4502 32.366 26.7437L29.009 24.5688ZM26.2472 30.6009C25.9836 31.6552 25.8359 32.6682 25.8359 33.625H29.8359C29.8359 33.0714 29.9226 32.3916 30.1278 31.571L26.2472 30.6009ZM25.8359 33.625C25.8359 35.0216 26.1809 36.3553 27.0319 37.4616L30.2024 35.0228C30.0118 34.7749 29.8359 34.3639 29.8359 33.625H25.8359ZM27.0502 37.485C28.0728 38.7743 29.5139 39.375 31.1172 39.375V35.375C30.585 35.375 30.3595 35.2204 30.1842 34.9994L27.0502 37.485ZM31.1172 39.375C33.3904 39.375 35.2358 38.141 36.6527 36.2832L33.4723 33.8574C32.5454 35.0726 31.7606 35.375 31.1172 35.375V39.375ZM36.6503 36.2865C37.772 34.8219 38.5587 33.1209 39.034 31.2194L35.1535 30.2493C34.7955 31.6811 34.228 32.8708 33.4747 33.8542L36.6503 36.2865ZM39.0325 31.2255C39.5894 29.0272 39.7119 26.8317 39.3839 24.6551L35.4286 25.2511C35.6735 26.8766 35.5877 28.5353 35.155 30.2432L39.0325 31.2255ZM39.379 24.6243C39.1941 23.5149 38.8334 22.4166 38.1224 21.5634C37.3412 20.626 36.2644 20.1406 35.0625 20.1406V24.1406C35.1198 24.1406 35.1122 24.15 35.074 24.1323C35.0344 24.1141 35.0268 24.0968 35.0495 24.1241C35.1197 24.2084 35.3059 24.5164 35.4335 25.2819L39.379 24.6243ZM45.6484 36.6328L45.9071 38.616L45.9192 38.6144L45.9313 38.6127L45.6484 36.6328ZM48.0703 37.0234L47.099 38.7718L47.137 38.7929L47.1759 38.8123L48.0703 37.0234ZM47.4062 42.2578L46.1806 40.6774L46.1738 40.6827L46.167 40.688L47.4062 42.2578ZM44.1641 43.6641L43.8997 41.6816L43.8889 41.6831L44.1641 43.6641ZM41.7422 43.3516L40.8249 45.1288L40.8363 45.1347L40.8478 45.1404L41.7422 43.3516ZM42.3672 38.0781L41.1029 36.5284L41.0965 36.5337L41.09 36.539L42.3672 38.0781ZM50.0625 12.3359L50.3928 10.3634L48.6304 10.0683L48.1395 11.7865L50.0625 12.3359ZM58.2266 13.7031L59.9738 14.6764L61.3538 12.199L58.5569 11.7306L58.2266 13.7031ZM53.4609 22.8047L51.6469 21.9625L51.6446 21.9676L53.4609 22.8047ZM49.7891 32.5312L49.7028 34.5294L51.2488 34.5961L51.7015 33.1164L49.7891 32.5312ZM44.3594 32.2969L42.4363 31.7474L41.7397 34.1857L44.2731 34.295L44.3594 32.2969ZM45.9313 38.6127C46.4759 38.5349 46.8314 38.6231 47.099 38.7718L49.0416 35.2751C47.903 34.6426 46.6439 34.4703 45.3656 34.6529L45.9313 38.6127ZM47.1759 38.8123C47.2579 38.8533 47.3006 38.8856 47.3182 38.9006C47.3344 38.9144 47.3317 38.9155 47.3233 38.9023C47.3145 38.8887 47.3115 38.8783 47.3119 38.8799C47.3129 38.8834 47.3203 38.9124 47.3203 38.9766H51.3203C51.3203 38.2087 51.1354 37.4383 50.6924 36.7461C50.2531 36.0598 49.6376 35.571 48.9647 35.2346L47.1759 38.8123ZM47.3203 38.9766C47.3203 39.3571 47.1507 39.9251 46.1806 40.6774L48.6319 43.8383C50.2139 42.6114 51.3203 40.9918 51.3203 38.9766H47.3203ZM46.167 40.688C45.4399 41.262 44.6917 41.576 43.8997 41.6816L44.4284 45.6465C45.9802 45.4396 47.3934 44.8161 48.6455 43.8276L46.167 40.688ZM43.8889 41.6831C43.251 41.7717 42.8709 41.6798 42.6366 41.5627L40.8478 45.1404C41.9677 45.7004 43.2021 45.8169 44.4392 45.645L43.8889 41.6831ZM42.6595 41.5743C42.5857 41.5363 42.549 41.5072 42.5351 41.495C42.5227 41.484 42.5261 41.4845 42.5338 41.4969C42.5416 41.5095 42.543 41.517 42.5413 41.5104C42.5391 41.5019 42.5312 41.4676 42.5312 41.3984H38.5312C38.5312 42.1544 38.7071 42.9159 39.1342 43.6047C39.5594 44.2906 40.16 44.7857 40.8249 45.1288L42.6595 41.5743ZM42.5312 41.3984C42.5312 40.9762 42.7182 40.3857 43.6443 39.6172L41.09 36.539C39.5683 37.8018 38.5312 39.4248 38.5312 41.3984H42.5312ZM43.6314 39.6279C44.3499 39.0417 45.0996 38.7213 45.9071 38.616L45.3898 34.6496C43.8014 34.8568 42.3636 35.4999 41.1029 36.5284L43.6314 39.6279ZM49.7322 14.3085L57.8962 15.6757L58.5569 11.7306L50.3928 10.3634L49.7322 14.3085ZM56.4794 12.7298C54.3103 16.6237 52.6936 19.708 51.6469 21.9625L55.275 23.6469C56.2595 21.5264 57.8199 18.5429 59.9738 14.6764L56.4794 12.7298ZM51.6446 21.9676C50.223 25.0522 48.9679 28.3794 47.8766 31.9461L51.7015 33.1164C52.7457 29.7039 53.9385 26.5468 55.2773 23.6418L51.6446 21.9676ZM49.8753 30.5331L44.4456 30.2987L44.2731 34.295L49.7028 34.5294L49.8753 30.5331ZM46.2824 32.8463L51.9855 12.8854L48.1395 11.7865L42.4363 31.7474L46.2824 32.8463Z" fill="#F7931E" mask="url(#path-1-outside-1_1053_16164)"/>
</svg>
