<svg width="23" height="22" viewBox="0 0 23 22" fill="none" xmlns="http://www.w3.org/2000/svg">
<path d="M10.4746 21.6621C10.0514 21.6621 9.68359 21.5384 9.37109 21.291C9.05859 21.0501 8.85677 20.7279 8.76562 20.3242L8.375 18.6641L8.16016 18.5957L6.72461 19.4746C6.36003 19.7025 5.97917 19.7871 5.58203 19.7285C5.19141 19.6764 4.84961 19.5007 4.55664 19.2012L3.17969 17.834C2.8737 17.528 2.69466 17.1797 2.64258 16.7891C2.59701 16.3919 2.68815 16.0176 2.91602 15.666L3.80469 14.2402L3.72656 14.0352L2.08594 13.6445C1.68229 13.5469 1.35677 13.3418 1.10938 13.0293C0.86849 12.7168 0.748047 12.349 0.748047 11.9258V10.0117C0.748047 9.58854 0.86849 9.2207 1.10938 8.9082C1.35026 8.5957 1.67578 8.39062 2.08594 8.29297L3.7168 7.89258L3.79492 7.67773L2.90625 6.25195C2.6849 5.90039 2.59701 5.5293 2.64258 5.13867C2.69466 4.74805 2.8737 4.39648 3.17969 4.08398L4.54688 2.70703C4.84635 2.41406 5.19141 2.24154 5.58203 2.18945C5.97266 2.13086 6.34701 2.21224 6.70508 2.43359L8.14062 3.32227L8.375 3.23438L8.76562 1.57422C8.85677 1.17708 9.05859 0.854818 9.37109 0.607422C9.68359 0.360026 10.0514 0.236328 10.4746 0.236328H12.4668C12.89 0.236328 13.2578 0.360026 13.5703 0.607422C13.8828 0.848307 14.0846 1.17057 14.1758 1.57422L14.5566 3.23438L14.791 3.32227L16.2363 2.43359C16.5879 2.21224 16.959 2.13086 17.3496 2.18945C17.7467 2.24154 18.0918 2.41406 18.3848 2.70703L19.7617 4.08398C20.0677 4.39648 20.2435 4.74805 20.2891 5.13867C20.3411 5.5293 20.2565 5.90039 20.0352 6.25195L19.1367 7.67773L19.2246 7.89258L20.8555 8.29297C21.2591 8.39062 21.5814 8.5957 21.8223 8.9082C22.0697 9.2207 22.1934 9.58854 22.1934 10.0117V11.9258C22.1934 12.349 22.0697 12.7168 21.8223 13.0293C21.5814 13.3418 21.2591 13.5469 20.8555 13.6445L19.2148 14.0352L19.127 14.2402L20.0254 15.666C20.2467 16.0176 20.3314 16.3919 20.2793 16.7891C20.2337 17.1797 20.0612 17.528 19.7617 17.834L18.3848 19.2012C18.0853 19.5007 17.737 19.6764 17.3398 19.7285C16.9492 19.7871 16.5781 19.7025 16.2266 19.4746L14.7812 18.5957L14.5566 18.6641L14.1758 20.3242C14.0846 20.7279 13.8828 21.0501 13.5703 21.291C13.2578 21.5384 12.89 21.6621 12.4668 21.6621H10.4746ZM10.7871 19.709H12.1543C12.3105 19.709 12.3984 19.6341 12.418 19.4844L13.0039 17.0918C13.3359 17.0202 13.6484 16.9225 13.9414 16.7988C14.2344 16.6751 14.5111 16.5319 14.7715 16.3691L16.8613 17.6484C16.985 17.7331 17.1022 17.7201 17.2129 17.6094L18.1699 16.6523C18.2741 16.5547 18.2839 16.4408 18.1992 16.3105L16.9102 14.2207C17.0599 13.9733 17.1966 13.6999 17.3203 13.4004C17.444 13.0944 17.5449 12.7852 17.623 12.4727L20.0254 11.9062C20.1686 11.8802 20.2402 11.7891 20.2402 11.6328V10.2949C20.2402 10.1452 20.1686 10.0573 20.0254 10.0312L17.623 9.44531C17.5514 9.11979 17.4505 8.80729 17.3203 8.50781C17.1901 8.20182 17.0566 7.93164 16.9199 7.69727L18.209 5.60742C18.2936 5.47721 18.2839 5.36003 18.1797 5.25586L17.2227 4.30859C17.112 4.21094 16.9915 4.19792 16.8613 4.26953L14.7715 5.53906C14.5176 5.38932 14.2409 5.24935 13.9414 5.11914C13.6484 4.98893 13.3359 4.88802 13.0039 4.81641L12.418 2.41406C12.3984 2.26432 12.3105 2.18945 12.1543 2.18945H10.7871C10.6309 2.18945 10.5397 2.26432 10.5137 2.41406L9.94727 4.79688C9.62174 4.875 9.29622 4.98242 8.9707 5.11914C8.65169 5.24935 8.37826 5.38607 8.15039 5.5293L6.07031 4.25977C5.9401 4.18815 5.81966 4.20443 5.70898 4.30859L4.74219 5.24609C4.64453 5.35026 4.63802 5.4707 4.72266 5.60742L6.01172 7.69727C5.875 7.93164 5.74154 8.20182 5.61133 8.50781C5.48112 8.80729 5.38021 9.12305 5.30859 9.45508L2.91602 10.0312C2.77279 10.0573 2.70117 10.1452 2.70117 10.2949V11.6328C2.70117 11.7891 2.77279 11.8802 2.91602 11.9062L5.31836 12.4727C5.38997 12.7917 5.48763 13.1009 5.61133 13.4004C5.73503 13.6934 5.87174 13.9668 6.02148 14.2207L4.72266 16.3105C4.65104 16.4473 4.66406 16.5645 4.76172 16.6621L5.71875 17.6191C5.83594 17.7298 5.95312 17.7428 6.07031 17.6582L8.16992 16.3691C8.42383 16.5319 8.70052 16.6784 9 16.8086C9.30599 16.9323 9.61849 17.0267 9.9375 17.0918L10.5137 19.4844C10.5397 19.6341 10.6309 19.709 10.7871 19.709ZM11.4707 14.6504C10.7936 14.6504 10.1751 14.4844 9.61523 14.1523C9.05534 13.8138 8.60612 13.3646 8.26758 12.8047C7.93555 12.2448 7.76953 11.6263 7.76953 10.9492C7.76953 10.2786 7.93555 9.66341 8.26758 9.10352C8.60612 8.54362 9.05534 8.09766 9.61523 7.76562C10.1751 7.43359 10.7936 7.26758 11.4707 7.26758C12.1478 7.26758 12.7663 7.43359 13.3262 7.76562C13.8861 8.09766 14.332 8.54362 14.6641 9.10352C14.9961 9.66341 15.1621 10.2786 15.1621 10.9492C15.1621 11.6263 14.9961 12.2448 14.6641 12.8047C14.332 13.3646 13.8861 13.8138 13.3262 14.1523C12.7663 14.4844 12.1478 14.6504 11.4707 14.6504ZM11.4707 12.8535C11.8092 12.8535 12.1185 12.7689 12.3984 12.5996C12.6849 12.4238 12.9128 12.1927 13.082 11.9062C13.2578 11.6133 13.3457 11.2943 13.3457 10.9492C13.3457 10.6042 13.2578 10.2917 13.082 10.0117C12.9128 9.72526 12.6849 9.4974 12.3984 9.32812C12.1185 9.15234 11.8092 9.06445 11.4707 9.06445C11.1257 9.06445 10.8099 9.14909 10.5234 9.31836C10.237 9.48763 10.0059 9.71549 9.83008 10.002C9.66081 10.2884 9.57617 10.6042 9.57617 10.9492C9.57617 11.3008 9.66081 11.6198 9.83008 11.9062C10.0059 12.1927 10.237 12.4238 10.5234 12.5996C10.8099 12.7689 11.1257 12.8535 11.4707 12.8535Z" fill="#3861FB"/>
</svg>
