<svg width="25" height="24" viewBox="0 0 25 24" fill="none" xmlns="http://www.w3.org/2000/svg">
<g clip-path="url(#clip0_50_932)">
<path d="M13.1069 23.8673C13.1069 23.8673 14.3161 23.3455 13.9 21C17.2853 18.1211 19.9144 15 19.9144 15C19.9144 15 21.4267 16.4205 19.9144 19.0399C17.3237 23.5257 13.1069 23.8673 13.1069 23.8673ZM7.42738 17C7.42738 17 8.21205 11.3299 9.57926 8.9618C10.1944 7.89633 10.8618 7.01784 11.5457 6.26533L19.6495 10.9441C19.3406 11.9139 18.9138 12.9322 18.299 13.997C16.9526 16.3291 12.595 19.9835 12.595 19.9835L7.42738 17ZM14.8415 9.9084C13.9302 9.38227 12.7645 9.6946 12.238 10.6065C11.7119 11.5177 12.0239 12.6841 12.9352 13.2102C13.8464 13.7363 15.0128 13.4244 15.5393 12.5125C16.0664 11.601 15.7534 10.4349 14.8415 9.9084ZM18.7434 2.33074L19.8557 0.404159C19.9582 0.226695 20.1851 0.165891 20.3626 0.26835C20.5401 0.370809 20.6009 0.597731 20.4984 0.775195L19.4191 2.64458C19.845 3.60334 21.5851 5.71725 20.5931 9.5118L12.7784 5C15.4864 2.31614 17.6152 2.46081 18.7434 2.33074ZM3.63288 18.3975C3.63288 18.3975 1.8203 14.5748 4.41039 10.0887C5.92267 7.46931 7.78114 8.5 7.78114 8.5C7.78114 8.5 6.70122 11.6292 5.90002 16C3.65969 16.8126 3.63288 18.3975 3.63288 18.3975ZM9.26515 22.0914L9.03753 21.2419L7.42738 22.7055L7.78114 20.5166L6.77622 21.1796L7.06765 19.0987L10.7642 21.2329L9.26515 22.0914Z" fill="white"/>
</g>
<defs>
<clipPath id="clip0_50_932">
<rect width="24" height="24" fill="white" transform="translate(0.900024)"/>
</clipPath>
</defs>
</svg>
