<svg width="19" height="16" viewBox="0 0 19 16" fill="none" xmlns="http://www.w3.org/2000/svg">
<path d="M18.3 0.75C18.3 0.336 17.9648 0 17.55 0H7.05005C6.63605 0 6.30005 0.336 6.30005 0.75V2.25C6.30005 2.664 6.63605 3 7.05005 3H17.55C17.9648 3 18.3 2.664 18.3 2.25V0.75Z" fill="#ACC1D9"/>
<path d="M18.3 7.25C18.3 6.836 17.9648 6.5 17.55 6.5H7.05005C6.63605 6.5 6.30005 6.836 6.30005 7.25V8.75C6.30005 9.164 6.63605 9.5 7.05005 9.5H17.55C17.9648 9.5 18.3 9.164 18.3 8.75V7.25Z" fill="#ACC1D9"/>
<path d="M18.3 13.75C18.3 13.336 17.9648 13 17.55 13H7.05005C6.63605 13 6.30005 13.336 6.30005 13.75V15.25C6.30005 15.664 6.63605 16 7.05005 16H17.55C17.9648 16 18.3 15.664 18.3 15.25V13.75Z" fill="#ACC1D9"/>
<path d="M3.30005 0.75C3.30005 0.336 2.96405 0 2.55005 0H1.05005C0.636049 0 0.300049 0.336 0.300049 0.75V2.25C0.300049 2.664 0.636049 3 1.05005 3H2.55005C2.96405 3 3.30005 2.664 3.30005 2.25V0.75Z" fill="#ACC1D9"/>
<path d="M3.30005 7.25C3.30005 6.836 2.96405 6.5 2.55005 6.5H1.05005C0.636049 6.5 0.300049 6.836 0.300049 7.25V8.75C0.300049 9.164 0.636049 9.5 1.05005 9.5H2.55005C2.96405 9.5 3.30005 9.164 3.30005 8.75V7.25Z" fill="#ACC1D9"/>
<path d="M3.30005 13.75C3.30005 13.336 2.96405 13 2.55005 13H1.05005C0.636049 13 0.300049 13.336 0.300049 13.75V15.25C0.300049 15.664 0.636049 16 1.05005 16H2.55005C2.96405 16 3.30005 15.664 3.30005 15.25V13.75Z" fill="#ACC1D9"/>
</svg>
