<svg width="21" height="18" viewBox="0 0 21 18" fill="none" xmlns="http://www.w3.org/2000/svg">
<path d="M1.09998 3V14C1.09998 15.6569 2.44313 17 4.09998 17H18.1C18.6523 17 19.1 16.5523 19.1 16V13M1.09998 3C1.09998 4.10457 1.99541 5 3.09998 5H17.1M1.09998 3C1.09998 1.89543 1.99541 1 3.09998 1H16.1C16.6523 1 17.1 1.44772 17.1 2V5M19.1 13H16.1C14.9954 13 14.1 12.1046 14.1 11C14.1 9.8954 14.9954 9 16.1 9H19.1M19.1 13V9M17.1 5H18.1C18.6523 5 19.1 5.44772 19.1 6V9" stroke="#ACC1D9" stroke-width="2" stroke-linecap="round" stroke-linejoin="round"/>
</svg>
