<svg width="23" height="22" viewBox="0 0 23 22" fill="none" xmlns="http://www.w3.org/2000/svg">
<path fill-rule="evenodd" clip-rule="evenodd" d="M14.7001 3.5C14.7001 1.56689 11.5661 0 7.70007 0C3.83407 0 0.700073 1.56689 0.700073 3.5V11.5C0.700073 13.2634 3.308 14.7221 6.70051 14.9646C7.25139 15.004 7.70007 14.5523 7.70007 14C7.70007 13.4477 7.25186 13.0036 6.7006 12.97C4.4181 12.8311 2.70007 12.2257 2.70007 11.5V10C3.75046 10.5359 5.14281 10.8692 6.70057 10.9686C7.25173 11.0038 7.70007 10.5523 7.70007 10C7.70007 9.4477 7.25186 9.0036 6.7006 8.97002C4.4181 8.83109 2.70007 8.22569 2.70007 7.5V6C3.97058 6.64819 5.74139 7 7.70007 7C9.65875 7 11.4296 6.64819 12.7001 6H13.7001C14.2524 6 14.7001 5.55228 14.7001 5V3.5ZM7.70007 2C4.93866 2 2.70007 2.67163 2.70007 3.5C2.70007 4.32837 4.93866 5 7.70007 5C10.4615 5 12.7001 4.32837 12.7001 3.5C12.7001 2.67163 10.4615 2 7.70007 2Z" fill="#ACC1D9"/>
<path fill-rule="evenodd" clip-rule="evenodd" d="M15.7001 7C19.5661 7 22.7001 8.567 22.7001 10.5V18.5C22.7001 20.433 19.5661 22 15.7001 22C11.8341 22 8.70007 20.433 8.70007 18.5V10.5C8.70007 8.567 11.8341 7 15.7001 7ZM15.7001 20C12.9387 20 10.7001 19.3284 10.7001 18.5V17C11.9706 17.6483 13.7414 18 15.7001 18C17.6588 18 19.4296 17.6483 20.7001 17V18.5C20.7001 19.3284 18.4615 20 15.7001 20ZM10.7001 14.5C10.7001 15.3284 12.9387 16 15.7001 16C18.4615 16 20.7001 15.3284 20.7001 14.5V13C19.4296 13.6483 17.6588 14 15.7001 14C13.7414 14 11.9706 13.6483 10.7001 13V14.5ZM10.7001 10.5C10.7001 9.6716 12.9387 9 15.7001 9C18.4615 9 20.7001 9.6716 20.7001 10.5C20.7001 11.3284 18.4615 12 15.7001 12C12.9387 12 10.7001 11.3284 10.7001 10.5Z" fill="#ACC1D9"/>
</svg>
