<svg id="Слой_1" data-name="Слой 1" xmlns="http://www.w3.org/2000/svg" xmlns:xlink="http://www.w3.org/1999/xlink" viewBox="0 0 89.21 98"><defs><style>.cls-1{fill:none;}.cls-2{clip-path:url(#clip-path);}.cls-3{fill:#e2395a;}.cls-4{fill:#fc495c;}.cls-5{fill:#fd6b82;}.cls-6{fill:#fad557;}.cls-7{fill:#fcb12b;}.cls-8{fill:#f7e7a1;}.cls-9{fill:#f4d44e;}</style><clipPath id="clip-path"><rect class="cls-1" x="11.24" y="9.42" width="64" height="64"/></clipPath></defs><title>rocket_explosion</title><g class="cls-2"><path class="cls-3" d="M68.86,71.35a37,37,0,0,0-6.8-17.53,32.73,32.73,0,0,0-5.66-6.17,1.87,1.87,0,0,0-1.86-.27,1.89,1.89,0,0,0-1.15,1.48A32.16,32.16,0,0,1,46.7,64.77a1.87,1.87,0,0,0,.95,2.94l18.81,5.64A1.88,1.88,0,0,0,68.19,73,1.85,1.85,0,0,0,68.86,71.35Z"/><path class="cls-4" d="M39.79,64.77A32.16,32.16,0,0,1,33.1,48.86,1.89,1.89,0,0,0,32,47.38a1.87,1.87,0,0,0-1.86.27,32.73,32.73,0,0,0-5.66,6.17,37,37,0,0,0-6.8,17.53A1.85,1.85,0,0,0,18.3,73a1.87,1.87,0,0,0,1.73.36l18.81-5.64a1.88,1.88,0,0,0,1.25-1.22A1.92,1.92,0,0,0,39.79,64.77Z"/><path class="cls-5" d="M57.62,41.42c0,7.37-1.11,13.22-3.5,18.4a46.18,46.18,0,0,1-9,12.48l-.53.55a1.87,1.87,0,0,1-2.69,0l-.53-.55a66.61,66.61,0,0,1-4.56-5.24,35.77,35.77,0,0,1-7.42-17.67,56.25,56.25,0,0,1-.52-8A45.21,45.21,0,0,1,41.9,10a1.85,1.85,0,0,1,2.69,0A45.21,45.21,0,0,1,57.62,41.42Z"/><path class="cls-4" d="M44.59,10a1.86,1.86,0,0,0-1.35-.58v64a1.85,1.85,0,0,0,1.35-.57l.53-.55a46.18,46.18,0,0,0,9-12.48c2.39-5.18,3.5-11,3.5-18.4A45.21,45.21,0,0,0,44.59,10Z"/><path class="cls-6" d="M47.1,33.44a4.52,4.52,0,0,0-7.71,0,1.87,1.87,0,1,1-3.12-2.07,8.25,8.25,0,0,1,13.95,0,1.87,1.87,0,1,1-3.12,2.07Z"/><path class="cls-4" d="M45.12,50.3v22l-.53.55a1.87,1.87,0,0,1-2.69,0l-.53-.55v-22a1.88,1.88,0,1,1,3.75,0Z"/><path class="cls-7" d="M50.22,31.37a8.42,8.42,0,0,0-7-3.84v3.75a4.63,4.63,0,0,1,3.86,2.16,1.87,1.87,0,1,0,3.12-2.07Z"/><path class="cls-3" d="M43.24,48.42v25a1.85,1.85,0,0,0,1.35-.57l.53-.55v-22A1.88,1.88,0,0,0,43.24,48.42Z"/></g><path class="cls-8" d="M50,69,89.21,98,62,57.42a4.08,4.08,0,0,1,1.77-6L82.94,43.1l-16.52-.79a4.08,4.08,0,0,1-2.91-6.72l19.07-22.4L56.23,27.6A4.08,4.08,0,0,1,50.31,23l1.11-4.54-2.87,3.86a4.09,4.09,0,0,1-7-.87L32.59,0l.85,21.91a4.09,4.09,0,0,1-6.59,3.38l-5-3.89,2.7,5.28a4.08,4.08,0,0,1-4.34,5.88L0,29,17.42,39.89a4.08,4.08,0,0,1-.67,7.26l-6,2.37,6.89-.17a4.08,4.08,0,0,1,3.46,6.4L4.25,80.15,28.17,64.56A4.09,4.09,0,0,1,34.49,68V91.11L43.84,70.6A4.09,4.09,0,0,1,50,69Z"/><path class="cls-9" d="M4.25,80.15,28.17,64.56a4.1,4.1,0,0,1,5.32.74l3.83-5.55a3.59,3.59,0,0,0-3-5.63l-6.06.15,5.3-2.09a3.59,3.59,0,0,0,.6-6.38L18.78,36.18l17.78,3.17a3.6,3.6,0,0,0,3.83-5.18L38,29.53,42.4,33a3.6,3.6,0,0,0,5.8-3L47.93,23a4.09,4.09,0,0,1-6.43-1.54L32.59,0l.85,21.91a4.09,4.09,0,0,1-6.59,3.38l-5-3.89,2.71,5.28a4.08,4.08,0,0,1-4.35,5.88L0,29,17.42,39.89a4.08,4.08,0,0,1-.67,7.26l-6,2.37,6.89-.17a4.08,4.08,0,0,1,3.46,6.4Z"/></svg>