<?xml version="1.0" encoding="utf-8"?>
<!-- Generator: Adobe Illustrator 23.0.2, SVG Export Plug-In . SVG Version: 6.00 Build 0)  -->
<svg version="1.1" id="Слой_1" xmlns="http://www.w3.org/2000/svg" xmlns:xlink="http://www.w3.org/1999/xlink" x="0px" y="0px"
	 viewBox="0 0 64 78.45" style="enable-background:new 0 0 64 78.45;" xml:space="preserve">
<style type="text/css">
	.st0{clip-path:url(#SVGID_2_);}
	.st1{fill:#E2395A;}
	.st2{fill:#FC495C;}
	.st3{fill:#FD6B82;}
	.st4{fill:#FAD557;}
	.st5{fill:#FCB12B;}
	.st6{opacity:0.2;}
</style>
<g>
	<g>
		<defs>
			<rect id="SVGID_1_" width="64" height="64"/>
		</defs>
		<clipPath id="SVGID_2_">
			<use xlink:href="#SVGID_1_"  style="overflow:visible;"/>
		</clipPath>
		<g class="st0">
			<path class="st1" d="M57.61,61.92c-0.85-7.87-4.17-13.87-6.8-17.52c-2.87-3.97-5.54-6.09-5.66-6.18
				c-0.53-0.41-1.24-0.51-1.86-0.26c-0.62,0.25-1.06,0.81-1.16,1.48c-0.87,6.12-2.93,11.03-6.69,15.91
				c-0.38,0.49-0.49,1.13-0.3,1.72c0.19,0.59,0.66,1.04,1.25,1.22l18.81,5.64c0.59,0.18,1.25,0.05,1.74-0.35
				C57.43,63.17,57.68,62.55,57.61,61.92z"/>
			<path class="st2" d="M28.54,55.35c-3.76-4.88-5.82-9.79-6.69-15.91c-0.09-0.66-0.53-1.23-1.16-1.48
				c-0.62-0.25-1.33-0.15-1.86,0.26c-0.11,0.09-2.79,2.21-5.66,6.18c-2.64,3.65-5.95,9.66-6.8,17.52c-0.07,0.62,0.18,1.24,0.67,1.64
				c0.49,0.41,1.14,0.53,1.74,0.35l18.81-5.64c0.59-0.18,1.06-0.63,1.25-1.22C29.03,56.48,28.92,55.83,28.54,55.35z"/>
			<path class="st3" d="M46.37,32c0,7.37-1.11,13.21-3.5,18.39c-2.33,5.06-5.67,9-9,12.48c-0.17,0.18-0.35,0.37-0.53,0.55
				C33,63.79,32.51,64,32,64c-0.51,0-1-0.21-1.35-0.57c-0.18-0.18-0.35-0.37-0.53-0.55c-1.84-1.94-3.3-3.62-4.55-5.25
				c-4.17-5.42-6.47-10.87-7.43-17.67C17.8,37.5,17.62,34.9,17.62,32c0-11.56,4.63-22.72,13.03-31.43C31,0.21,31.49,0,32,0
				c0.51,0,1,0.21,1.35,0.57C41.75,9.28,46.37,20.44,46.37,32z"/>
			<path class="st2" d="M33.35,0.57C33,0.21,32.51,0,32,0v64c0.51,0,1-0.21,1.35-0.57c0.17-0.18,0.35-0.36,0.53-0.55
				c3.33-3.49,6.66-7.42,9-12.48c2.39-5.18,3.5-11.03,3.5-18.39C46.37,20.44,41.75,9.28,33.35,0.57z"/>
			<path class="st4" d="M35.85,24.02c-0.91-1.37-2.32-2.16-3.85-2.16c-1.54,0-2.94,0.79-3.85,2.16c-0.57,0.86-1.74,1.1-2.6,0.52
				c-0.86-0.57-1.1-1.74-0.52-2.6c1.6-2.4,4.2-3.84,6.98-3.84c2.77,0,5.38,1.43,6.98,3.84c0.57,0.86,0.34,2.03-0.52,2.6
				C37.59,25.12,36.43,24.89,35.85,24.02z"/>
			<path class="st2" d="M33.87,40.87v22c-0.17,0.18-0.35,0.37-0.53,0.55C33,63.79,32.51,64,32,64c-0.51,0-1-0.21-1.35-0.57
				c-0.18-0.18-0.35-0.37-0.53-0.55v-22c0-1.03,0.84-1.88,1.88-1.88C33.03,39,33.87,39.84,33.87,40.87z"/>
			<path class="st5" d="M38.98,21.95c-1.6-2.4-4.2-3.84-6.98-3.84v3.75c1.54,0,2.94,0.79,3.85,2.16c0.58,0.87,1.74,1.1,2.6,0.52
				C39.31,23.97,39.55,22.81,38.98,21.95z"/>
			<path class="st1" d="M32,39v25c0.51,0,1-0.21,1.35-0.57c0.17-0.18,0.35-0.36,0.53-0.55v-22C33.87,39.84,33.03,39,32,39z"/>
		</g>
	</g>
	<ellipse class="st6" cx="32" cy="71" rx="24" ry="1.5"/>
</g>
</svg>
