<svg id="Слой_1" data-name="Слой 1" xmlns="http://www.w3.org/2000/svg" xmlns:xlink="http://www.w3.org/1999/xlink" viewBox="0 0 51.25 78.45"><defs><style>.cls-1{fill:none;}.cls-2{clip-path:url(#clip-path);}.cls-3{fill:#e2395a;}.cls-4{fill:#fc495c;}.cls-5{fill:#fd6b82;}.cls-6{fill:#fad557;}.cls-7{fill:#fcb12b;}</style><clipPath id="clip-path" transform="translate(-6.38)"><rect class="cls-1" width="64" height="64"/></clipPath></defs><title>rocket</title><g class="cls-2"><path class="cls-3" d="M57.61,61.92a36.77,36.77,0,0,0-6.8-17.52,32.78,32.78,0,0,0-5.65-6.18,1.88,1.88,0,0,0-3,1.22,32.1,32.1,0,0,1-6.68,15.91,1.87,1.87,0,0,0,.95,2.93l18.8,5.64a1.87,1.87,0,0,0,2.4-2Z" transform="translate(-6.38)"/><path class="cls-4" d="M28.54,55.35a32.1,32.1,0,0,1-6.68-15.91,1.88,1.88,0,0,0-3-1.22,32.78,32.78,0,0,0-5.65,6.18,36.77,36.77,0,0,0-6.8,17.52,1.87,1.87,0,0,0,2.4,2l18.8-5.64a1.87,1.87,0,0,0,.95-2.93Z" transform="translate(-6.38)"/><path class="cls-5" d="M46.37,32c0,7.37-1.11,13.21-3.5,18.39a46,46,0,0,1-9,12.49l-.52.55a1.88,1.88,0,0,1-2.7,0l-.53-.55a68.13,68.13,0,0,1-4.55-5.25A35.71,35.71,0,0,1,18.14,40a57.62,57.62,0,0,1-.52-8A45.25,45.25,0,0,1,30.65.57a1.88,1.88,0,0,1,2.7,0A45.24,45.24,0,0,1,46.37,32Z" transform="translate(-6.38)"/><path class="cls-4" d="M33.35.57A1.89,1.89,0,0,0,32,0V64a1.89,1.89,0,0,0,1.35-.57l.52-.55a46,46,0,0,0,9-12.49c2.39-5.18,3.5-11,3.5-18.39A45.24,45.24,0,0,0,33.35.57Z" transform="translate(-6.38)"/><path class="cls-6" d="M35.85,24a4.51,4.51,0,0,0-7.7,0A1.88,1.88,0,0,1,25,22a8.26,8.26,0,0,1,14,0A1.88,1.88,0,1,1,35.85,24Z" transform="translate(-6.38)"/><path class="cls-4" d="M33.87,40.87v22l-.52.55a1.88,1.88,0,0,1-2.7,0l-.53-.55v-22a1.88,1.88,0,0,1,3.75,0Z" transform="translate(-6.38)"/><path class="cls-7" d="M39,22a8.41,8.41,0,0,0-7-3.84v3.75A4.6,4.6,0,0,1,35.85,24,1.88,1.88,0,1,0,39,22Z" transform="translate(-6.38)"/><path class="cls-3" d="M32,39V64a1.89,1.89,0,0,0,1.35-.57l.52-.55v-22A1.87,1.87,0,0,0,32,39Z" transform="translate(-6.38)"/></g><path class="cls-6" d="M35,66.45c0,3.87-1.34,12-3,12s-3-8.13-3-12,1.34-2,3-2S35,62.58,35,66.45Z" transform="translate(-6.38)"/><path class="cls-4" d="M34,65.47c0,1.6-.9,5-2,5s-2-3.38-2-5,.9-.83,2-.83S34,63.86,34,65.47Z" transform="translate(-6.38)"/></svg>