<svg width="83" height="32" viewBox="0 0 83 32" fill="none" xmlns="http://www.w3.org/2000/svg">
<mask id="path-1-outside-1_2_15801" maskUnits="userSpaceOnUse" x="-2.5" y="-3" width="88" height="37" fill="black">
<rect fill="white" x="-2.5" y="-3" width="88" height="37"/>
<path d="M27.2969 1.9375C23.7812 11.2604 21.1641 20.349 19.4453 29.2031L10.6953 30.6875L12.1406 16.3516L8.50781 29.6328L0.1875 31.1562C1.4375 21.3646 2.04948 12.3802 2.02344 4.20312L9.44531 2.79688L7.92188 19.9062L13 0.921875L16.9844 0.335938L14.2891 24.4375L19.7188 3.10938L27.2969 1.9375ZM37.4141 0.453125C40.1745 0.453125 42.1276 1.98958 43.2734 5.0625C43.8724 6.65104 44.1719 8.39583 44.1719 10.2969C44.1719 12.1198 43.8984 14.099 43.3516 16.2344C42.388 19.8802 40.7214 23.2396 38.3516 26.3125C35.4609 30.0625 32.401 31.9375 29.1719 31.9375C26.3854 31.9375 24.4062 30.401 23.2344 27.3281C22.6615 25.8177 22.375 24.125 22.375 22.25C22.375 20.401 22.6615 18.3958 23.2344 16.2344C24.1979 12.5625 25.8516 9.1901 28.1953 6.11719C31.0859 2.34115 34.1589 0.453125 37.4141 0.453125ZM36.0078 10.1406C34.5755 10.1406 33.1172 11.3125 31.6328 13.6562C30.4349 15.5052 29.6016 17.3151 29.1328 19.0859C28.8984 20.0234 28.7812 20.8698 28.7812 21.625C28.7812 22.6927 29.0417 23.5651 29.5625 24.2422C30.1615 24.9974 30.9948 25.375 32.0625 25.375C33.5208 25.375 34.8359 24.6068 36.0078 23.0703C36.9453 21.8464 37.6224 20.401 38.0391 18.7344C38.5339 16.7812 38.638 14.8542 38.3516 12.9531C38.0391 11.0781 37.2578 10.1406 36.0078 10.1406ZM69.6797 1.9375C66.1641 11.2604 63.5469 20.349 61.8281 29.2031L53.0781 30.6875L54.5234 16.3516L50.8906 29.6328L42.5703 31.1562C43.8203 21.3646 44.4323 12.3802 44.4062 4.20312L51.8281 2.79688L50.3047 19.9062L55.3828 0.921875L59.3672 0.335938L56.6719 24.4375L62.1016 3.10938L69.6797 1.9375ZM69.6406 24.6328C70.5521 24.5026 71.3594 24.6328 72.0625 25.0234C72.8958 25.4401 73.3125 26.0911 73.3125 26.9766C73.3125 28.1745 72.6745 29.2682 71.3984 30.2578C70.4089 31.0391 69.3281 31.5078 68.1562 31.6641C67.2188 31.7943 66.4115 31.6901 65.7344 31.3516C64.9271 30.9349 64.5234 30.2839 64.5234 29.3984C64.5234 28.2005 65.1354 27.0938 66.3594 26.0781C67.349 25.2708 68.4427 24.7891 69.6406 24.6328ZM74.0547 0.335938L82.2188 1.70312C80.0573 5.58333 78.4688 8.61719 77.4531 10.8047C76.0729 13.7995 74.849 17.0417 73.7812 20.5312L68.3516 20.2969L74.0547 0.335938Z"/>
</mask>
<path d="M27.2969 1.9375C23.7812 11.2604 21.1641 20.349 19.4453 29.2031L10.6953 30.6875L12.1406 16.3516L8.50781 29.6328L0.1875 31.1562C1.4375 21.3646 2.04948 12.3802 2.02344 4.20312L9.44531 2.79688L7.92188 19.9062L13 0.921875L16.9844 0.335938L14.2891 24.4375L19.7188 3.10938L27.2969 1.9375ZM37.4141 0.453125C40.1745 0.453125 42.1276 1.98958 43.2734 5.0625C43.8724 6.65104 44.1719 8.39583 44.1719 10.2969C44.1719 12.1198 43.8984 14.099 43.3516 16.2344C42.388 19.8802 40.7214 23.2396 38.3516 26.3125C35.4609 30.0625 32.401 31.9375 29.1719 31.9375C26.3854 31.9375 24.4062 30.401 23.2344 27.3281C22.6615 25.8177 22.375 24.125 22.375 22.25C22.375 20.401 22.6615 18.3958 23.2344 16.2344C24.1979 12.5625 25.8516 9.1901 28.1953 6.11719C31.0859 2.34115 34.1589 0.453125 37.4141 0.453125ZM36.0078 10.1406C34.5755 10.1406 33.1172 11.3125 31.6328 13.6562C30.4349 15.5052 29.6016 17.3151 29.1328 19.0859C28.8984 20.0234 28.7812 20.8698 28.7812 21.625C28.7812 22.6927 29.0417 23.5651 29.5625 24.2422C30.1615 24.9974 30.9948 25.375 32.0625 25.375C33.5208 25.375 34.8359 24.6068 36.0078 23.0703C36.9453 21.8464 37.6224 20.401 38.0391 18.7344C38.5339 16.7812 38.638 14.8542 38.3516 12.9531C38.0391 11.0781 37.2578 10.1406 36.0078 10.1406ZM69.6797 1.9375C66.1641 11.2604 63.5469 20.349 61.8281 29.2031L53.0781 30.6875L54.5234 16.3516L50.8906 29.6328L42.5703 31.1562C43.8203 21.3646 44.4323 12.3802 44.4062 4.20312L51.8281 2.79688L50.3047 19.9062L55.3828 0.921875L59.3672 0.335938L56.6719 24.4375L62.1016 3.10938L69.6797 1.9375ZM69.6406 24.6328C70.5521 24.5026 71.3594 24.6328 72.0625 25.0234C72.8958 25.4401 73.3125 26.0911 73.3125 26.9766C73.3125 28.1745 72.6745 29.2682 71.3984 30.2578C70.4089 31.0391 69.3281 31.5078 68.1562 31.6641C67.2188 31.7943 66.4115 31.6901 65.7344 31.3516C64.9271 30.9349 64.5234 30.2839 64.5234 29.3984C64.5234 28.2005 65.1354 27.0938 66.3594 26.0781C67.349 25.2708 68.4427 24.7891 69.6406 24.6328ZM74.0547 0.335938L82.2188 1.70312C80.0573 5.58333 78.4688 8.61719 77.4531 10.8047C76.0729 13.7995 74.849 17.0417 73.7812 20.5312L68.3516 20.2969L74.0547 0.335938Z" fill="#FAD557"/>
<path d="M27.2969 1.9375L29.1682 2.64318L30.3771 -0.562599L26.9912 -0.0390072L27.2969 1.9375ZM19.4453 29.2031L19.7798 31.175L21.1448 30.9434L21.4087 29.5842L19.4453 29.2031ZM10.6953 30.6875L8.7054 30.4869L8.44212 33.0983L11.0298 32.6593L10.6953 30.6875ZM12.1406 16.3516L14.1305 16.5522L10.2115 15.8239L12.1406 16.3516ZM8.50781 29.6328L8.86802 31.6001L10.1051 31.3736L10.4369 30.1605L8.50781 29.6328ZM0.1875 31.1562L-1.7964 30.903L-2.14276 33.6162L0.547709 33.1235L0.1875 31.1562ZM2.02344 4.20312L1.65111 2.23809L0.0181546 2.54749L0.0234476 4.20949L2.02344 4.20312ZM9.44531 2.79688L11.4374 2.97426L11.672 0.339385L9.07299 0.831837L9.44531 2.79688ZM7.92188 19.9062L5.92976 19.7289L9.85395 20.4231L7.92188 19.9062ZM13 0.921875L12.709 -1.05684L11.4078 -0.865487L11.0679 0.405065L13 0.921875ZM16.9844 0.335938L18.972 0.558215L19.2603 -2.02027L16.6934 -1.64278L16.9844 0.335938ZM14.2891 24.4375L12.3015 24.2152L16.2272 24.9309L14.2891 24.4375ZM19.7188 3.10938L19.4131 1.13287L18.1067 1.33489L17.7806 2.61596L19.7188 3.10938ZM25.4255 1.23182C21.8742 10.6493 19.2243 19.8465 17.482 28.822L21.4087 29.5842C23.1039 20.8514 25.6883 11.8715 29.1682 2.64318L25.4255 1.23182ZM19.1108 27.2313L10.3608 28.7157L11.0298 32.6593L19.7798 31.175L19.1108 27.2313ZM12.6852 30.8881L14.1305 16.5522L10.1507 16.1509L8.7054 30.4869L12.6852 30.8881ZM10.2115 15.8239L6.57868 29.1051L10.4369 30.1605L14.0698 16.8792L10.2115 15.8239ZM8.1476 27.6655L-0.172709 29.189L0.547709 33.1235L8.86802 31.6001L8.1476 27.6655ZM2.1714 31.4095C3.43022 21.5487 4.0498 12.4762 4.02343 4.19676L0.0234476 4.20949C0.0491633 12.2842 -0.555224 21.1804 -1.7964 30.903L2.1714 31.4095ZM2.39576 6.16816L9.81764 4.76191L9.07299 0.831837L1.65111 2.23809L2.39576 6.16816ZM7.45319 2.61949L5.92976 19.7289L9.91399 20.0836L11.4374 2.97426L7.45319 2.61949ZM9.85395 20.4231L14.9321 1.43868L11.0679 0.405065L5.9898 19.3894L9.85395 20.4231ZM13.291 2.90059L17.2754 2.31466L16.6934 -1.64278L12.709 -1.05684L13.291 2.90059ZM14.9968 0.11366L12.3015 24.2152L16.2767 24.6598L18.972 0.558215L14.9968 0.11366ZM16.2272 24.9309L21.6569 3.60279L17.7806 2.61596L12.3509 23.9441L16.2272 24.9309ZM20.0244 5.08588L27.6025 3.91401L26.9912 -0.0390072L19.4131 1.13287L20.0244 5.08588ZM43.2734 5.0625L41.3995 5.76127L41.402 5.76811L43.2734 5.0625ZM43.3516 16.2344L45.2852 16.7454L45.2871 16.738L45.289 16.7306L43.3516 16.2344ZM38.3516 26.3125L36.7678 25.0911L36.7675 25.0915L38.3516 26.3125ZM23.2344 27.3281L21.3644 28.0374L21.3657 28.0408L23.2344 27.3281ZM23.2344 16.2344L25.1676 16.7468L25.1689 16.742L23.2344 16.2344ZM28.1953 6.11719L26.6072 4.90147L26.6051 4.90429L28.1953 6.11719ZM31.6328 13.6562L33.3113 14.7437L33.3169 14.7351L33.3225 14.7264L31.6328 13.6562ZM29.1328 19.0859L27.1994 18.5742L27.1959 18.5875L27.1925 18.6009L29.1328 19.0859ZM29.5625 24.2422L27.9773 25.4616L27.9863 25.4734L27.9955 25.485L29.5625 24.2422ZM36.0078 23.0703L34.4201 21.8542L34.4176 21.8574L36.0078 23.0703ZM38.0391 18.7344L36.1003 18.2432L36.0988 18.2493L38.0391 18.7344ZM38.3516 12.9531L40.3292 12.6551L40.3269 12.6397L40.3243 12.6243L38.3516 12.9531ZM37.4141 2.45312C38.3984 2.45312 39.1279 2.71734 39.7127 3.17738C40.3223 3.65694 40.9149 4.4616 41.3995 5.76126L45.1474 4.36374C44.4862 2.59048 43.5293 1.09046 42.1858 0.0335598C40.8175 -1.04286 39.1902 -1.54688 37.4141 -1.54688V2.45312ZM41.402 5.76811C41.9064 7.10574 42.1719 8.60816 42.1719 10.2969H46.1719C46.1719 8.1835 45.8384 6.19635 45.1448 4.35689L41.402 5.76811ZM42.1719 10.2969C42.1719 11.9219 41.9278 13.7324 41.4141 15.7382L45.289 16.7306C45.8691 14.4656 46.1719 12.3177 46.1719 10.2969H42.1719ZM41.4179 15.7233C40.5245 19.1039 38.9796 22.223 36.7678 25.0911L39.9353 27.5339C42.4631 24.2561 44.2515 20.6565 45.2852 16.7454L41.4179 15.7233ZM36.7675 25.0915C34.0718 28.5887 31.5317 29.9375 29.1719 29.9375V33.9375C33.2704 33.9375 36.8501 31.5363 39.9356 27.5335L36.7675 25.0915ZM29.1719 29.9375C28.1702 29.9375 27.4234 29.6706 26.8241 29.2053C26.2012 28.7218 25.5983 27.914 25.1031 26.6155L21.3657 28.0408C22.0423 29.8151 23.0149 31.3121 24.3712 32.365C25.751 33.4362 27.3871 33.9375 29.1719 33.9375V29.9375ZM25.1044 26.6188C24.63 25.3683 24.375 23.921 24.375 22.25H20.375C20.375 24.329 20.6929 26.2671 21.3644 28.0374L25.1044 26.6188ZM24.375 22.25C24.375 20.6056 24.6301 18.7747 25.1676 16.7468L21.3011 15.722C20.6928 18.017 20.375 20.1964 20.375 22.25H24.375ZM25.1689 16.742C26.0641 13.3303 27.599 10.1968 29.7856 7.33009L26.6051 4.90429C24.1041 8.18336 22.3317 11.7947 21.2999 15.7267L25.1689 16.742ZM29.7834 7.3329C32.4776 3.8134 35.0297 2.45312 37.4141 2.45312V-1.54688C33.288 -1.54688 29.6942 0.86889 26.6072 4.90147L29.7834 7.3329ZM36.0078 8.14062C33.4471 8.14062 31.468 10.1785 29.9432 12.5861L33.3225 14.7264C34.7663 12.4465 35.7039 12.1406 36.0078 12.1406V8.14062ZM29.9543 12.5688C28.6641 14.5602 27.7319 16.5626 27.1994 18.5742L31.0662 19.5977C31.4713 18.0676 32.2057 16.4502 33.3113 14.7437L29.9543 12.5688ZM27.1925 18.6009C26.9289 19.6552 26.7812 20.6682 26.7812 21.625H30.7812C30.7812 21.0714 30.8679 20.3916 31.0731 19.571L27.1925 18.6009ZM26.7812 21.625C26.7812 23.0216 27.1262 24.3553 27.9773 25.4616L31.1477 23.0228C30.9571 22.7749 30.7812 22.3639 30.7812 21.625H26.7812ZM27.9955 25.485C29.0181 26.7743 30.4592 27.375 32.0625 27.375V23.375C31.5303 23.375 31.3048 23.2204 31.1295 22.9994L27.9955 25.485ZM32.0625 27.375C34.3357 27.375 36.1811 26.141 37.5981 24.2832L34.4176 21.8574C33.4908 23.0726 32.706 23.375 32.0625 23.375V27.375ZM37.5956 24.2865C38.7174 22.8219 39.504 21.1209 39.9793 19.2194L36.0988 18.2493C35.7408 19.6811 35.1733 20.8708 34.4201 21.8542L37.5956 24.2865ZM39.9778 19.2255C40.5347 17.0272 40.6572 14.8317 40.3292 12.6551L36.3739 13.2511C36.6188 14.8766 36.533 16.5353 36.1003 18.2432L39.9778 19.2255ZM40.3243 12.6243C40.1394 11.5149 39.7787 10.4166 39.0677 9.56338C38.2865 8.62601 37.2097 8.14062 36.0078 8.14062V12.1406C36.0651 12.1406 36.0575 12.15 36.0193 12.1323C35.9797 12.1141 35.9721 12.0968 35.9948 12.1241C36.0651 12.2084 36.2512 12.5164 36.3788 13.2819L40.3243 12.6243ZM69.6797 1.9375L71.5511 2.64318L72.7599 -0.562599L69.374 -0.0390072L69.6797 1.9375ZM61.8281 29.2031L62.1626 31.175L63.5276 30.9434L63.7915 29.5842L61.8281 29.2031ZM53.0781 30.6875L51.0882 30.4869L50.8249 33.0983L53.4126 32.6593L53.0781 30.6875ZM54.5234 16.3516L56.5134 16.5522L52.5943 15.8239L54.5234 16.3516ZM50.8906 29.6328L51.2508 31.6001L52.4879 31.3736L52.8198 30.1605L50.8906 29.6328ZM42.5703 31.1562L40.5864 30.903L40.2401 33.6162L42.9305 33.1235L42.5703 31.1562ZM44.4062 4.20312L44.0339 2.23809L42.401 2.54749L42.4063 4.20949L44.4062 4.20312ZM51.8281 2.79688L53.8202 2.97426L54.0549 0.339385L51.4558 0.831837L51.8281 2.79688ZM50.3047 19.9062L48.3126 19.7289L52.2368 20.4231L50.3047 19.9062ZM55.3828 0.921875L55.0918 -1.05684L53.7906 -0.865487L53.4507 0.405065L55.3828 0.921875ZM59.3672 0.335938L61.3548 0.558215L61.6432 -2.02027L59.0762 -1.64278L59.3672 0.335938ZM56.6719 24.4375L54.6843 24.2152L58.6101 24.9309L56.6719 24.4375ZM62.1016 3.10938L61.7959 1.13287L60.4895 1.33489L60.1634 2.61596L62.1016 3.10938ZM67.8083 1.23182C64.257 10.6493 61.6071 19.8465 59.8648 28.822L63.7915 29.5842C65.4867 20.8514 68.0711 11.8715 71.5511 2.64318L67.8083 1.23182ZM61.4936 27.2313L52.7436 28.7157L53.4126 32.6593L62.1626 31.175L61.4936 27.2313ZM55.068 30.8881L56.5134 16.5522L52.5335 16.1509L51.0882 30.4869L55.068 30.8881ZM52.5943 15.8239L48.9615 29.1051L52.8198 30.1605L56.4526 16.8792L52.5943 15.8239ZM50.5304 27.6655L42.2101 29.189L42.9305 33.1235L51.2508 31.6001L50.5304 27.6655ZM44.5542 31.4095C45.813 21.5487 46.4326 12.4762 46.4062 4.19676L42.4063 4.20949C42.432 12.2842 41.8276 21.1804 40.5864 30.903L44.5542 31.4095ZM44.7786 6.16816L52.2004 4.76191L51.4558 0.831837L44.0339 2.23809L44.7786 6.16816ZM49.836 2.61949L48.3126 19.7289L52.2968 20.0836L53.8202 2.97426L49.836 2.61949ZM52.2368 20.4231L57.3149 1.43868L53.4507 0.405065L48.3726 19.3894L52.2368 20.4231ZM55.6738 2.90059L59.6582 2.31466L59.0762 -1.64278L55.0918 -1.05684L55.6738 2.90059ZM57.3796 0.11366L54.6843 24.2152L58.6595 24.6598L61.3548 0.558215L57.3796 0.11366ZM58.6101 24.9309L64.0397 3.60279L60.1634 2.61596L54.7337 23.9441L58.6101 24.9309ZM62.4072 5.08588L69.9853 3.91401L69.374 -0.0390072L61.7959 1.13287L62.4072 5.08588ZM69.6406 24.6328L69.8993 26.616L69.9114 26.6144L69.9235 26.6127L69.6406 24.6328ZM72.0625 25.0234L71.0912 26.7718L71.1292 26.7929L71.1681 26.8123L72.0625 25.0234ZM71.3984 30.2578L70.1728 28.6774L70.1659 28.6827L70.1591 28.688L71.3984 30.2578ZM68.1562 31.6641L67.8919 29.6816L67.8811 29.6831L68.1562 31.6641ZM65.7344 31.3516L64.8171 33.1288L64.8285 33.1347L64.84 33.1404L65.7344 31.3516ZM66.3594 26.0781L65.0951 24.5284L65.0887 24.5337L65.0822 24.539L66.3594 26.0781ZM74.0547 0.335938L74.385 -1.63659L72.6226 -1.93174L72.1316 -0.213505L74.0547 0.335938ZM82.2188 1.70312L83.966 2.6764L85.346 0.198977L82.5491 -0.269407L82.2188 1.70312ZM77.4531 10.8047L75.6391 9.96246L75.6367 9.96757L77.4531 10.8047ZM73.7812 20.5312L73.695 22.5294L75.241 22.5961L75.6937 21.1164L73.7812 20.5312ZM68.3516 20.2969L66.4285 19.7474L65.7319 22.1857L68.2653 22.295L68.3516 20.2969ZM69.9235 26.6127C70.4681 26.5349 70.8236 26.6231 71.0912 26.7718L73.0338 23.2751C71.8952 22.6426 70.636 22.4703 69.3578 22.6529L69.9235 26.6127ZM71.1681 26.8123C71.2501 26.8533 71.2928 26.8856 71.3104 26.9006C71.3265 26.9144 71.3239 26.9155 71.3155 26.9023C71.3067 26.8887 71.3036 26.8783 71.3041 26.8799C71.305 26.8834 71.3125 26.9124 71.3125 26.9766H75.3125C75.3125 26.2087 75.1276 25.4383 74.6845 24.7461C74.2453 24.0598 73.6298 23.571 72.9569 23.2346L71.1681 26.8123ZM71.3125 26.9766C71.3125 27.3571 71.1429 27.9251 70.1728 28.6774L72.6241 31.8383C74.2061 30.6114 75.3125 28.9918 75.3125 26.9766H71.3125ZM70.1591 28.688C69.4321 29.262 68.6838 29.576 67.8919 29.6816L68.4206 33.6465C69.9724 33.4396 71.3856 32.8161 72.6377 31.8276L70.1591 28.688ZM67.8811 29.6831C67.2432 29.7717 66.8631 29.6798 66.6288 29.5627L64.84 33.1404C65.9599 33.7004 67.1943 33.8169 68.4314 33.645L67.8811 29.6831ZM66.6517 29.5743C66.5779 29.5363 66.5411 29.5072 66.5273 29.495C66.5149 29.484 66.5183 29.4845 66.526 29.4969C66.5338 29.5095 66.5352 29.517 66.5335 29.5104C66.5313 29.5019 66.5234 29.4676 66.5234 29.3984H62.5234C62.5234 30.1544 62.6993 30.9159 63.1264 31.6047C63.5516 32.2906 64.1522 32.7857 64.8171 33.1288L66.6517 29.5743ZM66.5234 29.3984C66.5234 28.9762 66.7104 28.3857 67.6365 27.6172L65.0822 24.539C63.5605 25.8018 62.5234 27.4248 62.5234 29.3984H66.5234ZM67.6236 27.6279C68.3421 27.0417 69.0918 26.7213 69.8993 26.616L69.382 22.6496C67.7936 22.8568 66.3558 23.4999 65.0951 24.5284L67.6236 27.6279ZM73.7244 2.30847L81.8884 3.67566L82.5491 -0.269407L74.385 -1.63659L73.7244 2.30847ZM80.4715 0.729848C78.3025 4.62374 76.6858 7.708 75.6391 9.96247L79.2671 11.6469C80.2517 9.52637 81.8121 6.54293 83.966 2.6764L80.4715 0.729848ZM75.6367 9.96757C74.2151 13.0522 72.9601 16.3794 71.8688 19.9461L75.6937 21.1164C76.7379 17.7039 77.9307 14.5468 79.2695 11.6418L75.6367 9.96757ZM73.8675 18.5331L68.4378 18.2987L68.2653 22.295L73.695 22.5294L73.8675 18.5331ZM70.2746 20.8463L75.9777 0.88538L72.1316 -0.213505L66.4285 19.7474L70.2746 20.8463Z" fill="#F7931E" mask="url(#path-1-outside-1_2_15801)"/>
</svg>
