<svg width="137" height="33" viewBox="0 0 137 33" fill="none" xmlns="http://www.w3.org/2000/svg">
<mask id="path-1-outside-1_2_15977" maskUnits="userSpaceOnUse" x="-2.5" y="-3" width="143" height="39" fill="black">
<rect fill="white" x="-2.5" y="-3" width="143" height="39"/>
<path d="M13.7422 2.83594L20.0312 3.92969C14.4062 13.7995 9.95312 22.7318 6.67188 30.7266L0.65625 30.3359L4.79688 21.625L1.51562 5.92188L9.13281 2.40625C9.05469 3.60417 9.0026 5.10156 8.97656 6.89844C8.95052 8.69531 9.04167 10.4922 9.25 12.2891L13.7422 2.83594ZM29.4844 0.453125C32.2448 0.453125 34.1979 1.98958 35.3438 5.0625C35.9427 6.65104 36.2422 8.39583 36.2422 10.2969C36.2422 12.1198 35.9688 14.099 35.4219 16.2344C34.4583 19.8802 32.7917 23.2396 30.4219 26.3125C27.5312 30.0625 24.4714 31.9375 21.2422 31.9375C18.4557 31.9375 16.4766 30.401 15.3047 27.3281C14.7318 25.8177 14.4453 24.125 14.4453 22.25C14.4453 20.401 14.7318 18.3958 15.3047 16.2344C16.2682 12.5625 17.9219 9.1901 20.2656 6.11719C23.1562 2.34115 26.2292 0.453125 29.4844 0.453125ZM28.0781 10.1406C26.6458 10.1406 25.1875 11.3125 23.7031 13.6562C22.5052 15.5052 21.6719 17.3151 21.2031 19.0859C20.9688 20.0234 20.8516 20.8698 20.8516 21.625C20.8516 22.6927 21.112 23.5651 21.6328 24.2422C22.2318 24.9974 23.0651 25.375 24.1328 25.375C25.5911 25.375 26.9062 24.6068 28.0781 23.0703C29.0156 21.8464 29.6927 20.401 30.1094 18.7344C30.6042 16.7812 30.7083 14.8542 30.4219 12.9531C30.1094 11.0781 29.3281 10.1406 28.0781 10.1406ZM38.3906 3.42188L45.0703 2.17188C43.2734 8.99479 41.9453 15.1146 41.0859 20.5312L44.7969 18.9688L47.5312 3.42188L54.2109 2.17188C51.5026 12.849 49.7448 21.8984 48.9375 29.3203L42.6875 31.0391L43.4688 26.7031C41.2812 27.6667 37.974 29.112 33.5469 31.0391L38.3906 3.42188ZM86.4766 1.9375C82.9609 11.2604 80.3438 20.349 78.625 29.2031L69.875 30.6875L71.3203 16.3516L67.6875 29.6328L59.3672 31.1562C60.6172 21.3646 61.2292 12.3802 61.2031 4.20312L68.625 2.79688L67.1016 19.9062L72.1797 0.921875L76.1641 0.335938L73.4688 24.4375L78.8984 3.10938L86.4766 1.9375ZM96.5938 0.453125C99.3542 0.453125 101.307 1.98958 102.453 5.0625C103.052 6.65104 103.352 8.39583 103.352 10.2969C103.352 12.1198 103.078 14.099 102.531 16.2344C101.568 19.8802 99.901 23.2396 97.5312 26.3125C94.6406 30.0625 91.5807 31.9375 88.3516 31.9375C85.5651 31.9375 83.5859 30.401 82.4141 27.3281C81.8411 25.8177 81.5547 24.125 81.5547 22.25C81.5547 20.401 81.8411 18.3958 82.4141 16.2344C83.3776 12.5625 85.0312 9.1901 87.375 6.11719C90.2656 2.34115 93.3385 0.453125 96.5938 0.453125ZM95.1875 10.1406C93.7552 10.1406 92.2969 11.3125 90.8125 13.6562C89.6146 15.5052 88.7812 17.3151 88.3125 19.0859C88.0781 20.0234 87.9609 20.8698 87.9609 21.625C87.9609 22.6927 88.2214 23.5651 88.7422 24.2422C89.3411 24.9974 90.1745 25.375 91.2422 25.375C92.7005 25.375 94.0156 24.6068 95.1875 23.0703C96.125 21.8464 96.8021 20.401 97.2188 18.7344C97.7135 16.7812 97.8177 14.8542 97.5312 12.9531C97.2188 11.0781 96.4375 10.1406 95.1875 10.1406ZM105.656 3.53906L112.414 2.17188C112.362 2.97917 112.336 4.125 112.336 5.60938C112.336 9.15104 112.453 12.263 112.688 14.9453C112.818 16.4818 113.013 17.7188 113.273 18.6562L115.93 3.42188L122.648 2.17188C119.94 12.6146 118.169 21.6641 117.336 29.3203L111.164 31.0391C111.138 30.987 110.969 30.5312 110.656 29.6719L108.625 23.8906C108.286 22.9531 108.091 22.3542 108.039 22.0938C107.492 25.1667 107.062 28.1484 106.75 31.0391L100.5 32.9141L105.656 3.53906ZM123.977 24.6328C124.888 24.5026 125.695 24.6328 126.398 25.0234C127.232 25.4401 127.648 26.0911 127.648 26.9766C127.648 28.1745 127.01 29.2682 125.734 30.2578C124.745 31.0391 123.664 31.5078 122.492 31.6641C121.555 31.7943 120.747 31.6901 120.07 31.3516C119.263 30.9349 118.859 30.2839 118.859 29.3984C118.859 28.2005 119.471 27.0938 120.695 26.0781C121.685 25.2708 122.779 24.7891 123.977 24.6328ZM128.391 0.335938L136.555 1.70312C134.393 5.58333 132.805 8.61719 131.789 10.8047C130.409 13.7995 129.185 17.0417 128.117 20.5312L122.688 20.2969L128.391 0.335938Z"/>
</mask>
<path d="M13.7422 2.83594L20.0312 3.92969C14.4062 13.7995 9.95312 22.7318 6.67188 30.7266L0.65625 30.3359L4.79688 21.625L1.51562 5.92188L9.13281 2.40625C9.05469 3.60417 9.0026 5.10156 8.97656 6.89844C8.95052 8.69531 9.04167 10.4922 9.25 12.2891L13.7422 2.83594ZM29.4844 0.453125C32.2448 0.453125 34.1979 1.98958 35.3438 5.0625C35.9427 6.65104 36.2422 8.39583 36.2422 10.2969C36.2422 12.1198 35.9688 14.099 35.4219 16.2344C34.4583 19.8802 32.7917 23.2396 30.4219 26.3125C27.5312 30.0625 24.4714 31.9375 21.2422 31.9375C18.4557 31.9375 16.4766 30.401 15.3047 27.3281C14.7318 25.8177 14.4453 24.125 14.4453 22.25C14.4453 20.401 14.7318 18.3958 15.3047 16.2344C16.2682 12.5625 17.9219 9.1901 20.2656 6.11719C23.1562 2.34115 26.2292 0.453125 29.4844 0.453125ZM28.0781 10.1406C26.6458 10.1406 25.1875 11.3125 23.7031 13.6562C22.5052 15.5052 21.6719 17.3151 21.2031 19.0859C20.9688 20.0234 20.8516 20.8698 20.8516 21.625C20.8516 22.6927 21.112 23.5651 21.6328 24.2422C22.2318 24.9974 23.0651 25.375 24.1328 25.375C25.5911 25.375 26.9062 24.6068 28.0781 23.0703C29.0156 21.8464 29.6927 20.401 30.1094 18.7344C30.6042 16.7812 30.7083 14.8542 30.4219 12.9531C30.1094 11.0781 29.3281 10.1406 28.0781 10.1406ZM38.3906 3.42188L45.0703 2.17188C43.2734 8.99479 41.9453 15.1146 41.0859 20.5312L44.7969 18.9688L47.5312 3.42188L54.2109 2.17188C51.5026 12.849 49.7448 21.8984 48.9375 29.3203L42.6875 31.0391L43.4688 26.7031C41.2812 27.6667 37.974 29.112 33.5469 31.0391L38.3906 3.42188ZM86.4766 1.9375C82.9609 11.2604 80.3438 20.349 78.625 29.2031L69.875 30.6875L71.3203 16.3516L67.6875 29.6328L59.3672 31.1562C60.6172 21.3646 61.2292 12.3802 61.2031 4.20312L68.625 2.79688L67.1016 19.9062L72.1797 0.921875L76.1641 0.335938L73.4688 24.4375L78.8984 3.10938L86.4766 1.9375ZM96.5938 0.453125C99.3542 0.453125 101.307 1.98958 102.453 5.0625C103.052 6.65104 103.352 8.39583 103.352 10.2969C103.352 12.1198 103.078 14.099 102.531 16.2344C101.568 19.8802 99.901 23.2396 97.5312 26.3125C94.6406 30.0625 91.5807 31.9375 88.3516 31.9375C85.5651 31.9375 83.5859 30.401 82.4141 27.3281C81.8411 25.8177 81.5547 24.125 81.5547 22.25C81.5547 20.401 81.8411 18.3958 82.4141 16.2344C83.3776 12.5625 85.0312 9.1901 87.375 6.11719C90.2656 2.34115 93.3385 0.453125 96.5938 0.453125ZM95.1875 10.1406C93.7552 10.1406 92.2969 11.3125 90.8125 13.6562C89.6146 15.5052 88.7812 17.3151 88.3125 19.0859C88.0781 20.0234 87.9609 20.8698 87.9609 21.625C87.9609 22.6927 88.2214 23.5651 88.7422 24.2422C89.3411 24.9974 90.1745 25.375 91.2422 25.375C92.7005 25.375 94.0156 24.6068 95.1875 23.0703C96.125 21.8464 96.8021 20.401 97.2188 18.7344C97.7135 16.7812 97.8177 14.8542 97.5312 12.9531C97.2188 11.0781 96.4375 10.1406 95.1875 10.1406ZM105.656 3.53906L112.414 2.17188C112.362 2.97917 112.336 4.125 112.336 5.60938C112.336 9.15104 112.453 12.263 112.688 14.9453C112.818 16.4818 113.013 17.7188 113.273 18.6562L115.93 3.42188L122.648 2.17188C119.94 12.6146 118.169 21.6641 117.336 29.3203L111.164 31.0391C111.138 30.987 110.969 30.5312 110.656 29.6719L108.625 23.8906C108.286 22.9531 108.091 22.3542 108.039 22.0938C107.492 25.1667 107.062 28.1484 106.75 31.0391L100.5 32.9141L105.656 3.53906ZM123.977 24.6328C124.888 24.5026 125.695 24.6328 126.398 25.0234C127.232 25.4401 127.648 26.0911 127.648 26.9766C127.648 28.1745 127.01 29.2682 125.734 30.2578C124.745 31.0391 123.664 31.5078 122.492 31.6641C121.555 31.7943 120.747 31.6901 120.07 31.3516C119.263 30.9349 118.859 30.2839 118.859 29.3984C118.859 28.2005 119.471 27.0938 120.695 26.0781C121.685 25.2708 122.779 24.7891 123.977 24.6328ZM128.391 0.335938L136.555 1.70312C134.393 5.58333 132.805 8.61719 131.789 10.8047C130.409 13.7995 129.185 17.0417 128.117 20.5312L122.688 20.2969L128.391 0.335938Z" fill="#FAD557"/>
<path d="M13.7422 2.83594L14.0849 0.865514L12.5879 0.605175L11.9358 1.97752L13.7422 2.83594ZM20.0312 3.92969L21.7689 4.91999L23.1783 2.44698L20.3739 1.95926L20.0312 3.92969ZM6.67188 30.7266L6.54228 32.7224L7.97643 32.8155L8.5221 31.4859L6.67188 30.7266ZM0.65625 30.3359L-1.15007 29.4773L-2.41604 32.1407L0.526653 32.3317L0.65625 30.3359ZM4.79688 21.625L6.60319 22.4836L6.89236 21.8753L6.75459 21.2159L4.79688 21.625ZM1.51562 5.92188L0.677509 4.10596L-0.767645 4.77295L-0.442092 6.33095L1.51562 5.92188ZM9.13281 2.40625L11.1286 2.53641L11.3474 -0.818599L8.2947 0.590331L9.13281 2.40625ZM9.25 12.2891L7.26331 12.5194L8.06579 19.4408L11.0564 13.1475L9.25 12.2891ZM13.3995 4.80636L19.6886 5.90011L20.3739 1.95926L14.0849 0.865514L13.3995 4.80636ZM18.2936 2.93939C12.6385 12.862 8.14372 21.8729 4.82165 29.9672L8.5221 31.4859C11.7625 23.5906 16.174 14.737 21.7689 4.91999L18.2936 2.93939ZM6.80147 28.7308L0.785847 28.3401L0.526653 32.3317L6.54228 32.7224L6.80147 28.7308ZM2.46257 31.1945L6.60319 22.4836L2.99056 20.7664L-1.15007 29.4773L2.46257 31.1945ZM6.75459 21.2159L3.47334 5.5128L-0.442092 6.33095L2.83916 22.0341L6.75459 21.2159ZM2.35374 7.73779L9.97093 4.22217L8.2947 0.590331L0.677509 4.10596L2.35374 7.73779ZM7.13705 2.27609C7.05594 3.51977 7.00309 5.05361 6.97677 6.86946L10.9764 6.92742C11.0021 5.14952 11.0534 3.68856 11.1286 2.53641L7.13705 2.27609ZM6.97677 6.86946C6.94947 8.75353 7.04506 10.637 7.26331 12.5194L11.2367 12.0587C11.0383 10.3473 10.9516 8.63709 10.9764 6.92742L6.97677 6.86946ZM11.0564 13.1475L15.5486 3.69436L11.9358 1.97752L7.44359 11.4306L11.0564 13.1475ZM35.3438 5.0625L33.4698 5.76127L33.4724 5.76811L35.3438 5.0625ZM35.4219 16.2344L37.3555 16.7454L37.3574 16.738L37.3593 16.7306L35.4219 16.2344ZM30.4219 26.3125L28.8381 25.0911L28.8379 25.0915L30.4219 26.3125ZM15.3047 27.3281L13.4347 28.0374L13.436 28.0408L15.3047 27.3281ZM15.3047 16.2344L17.2379 16.7468L17.2392 16.742L15.3047 16.2344ZM20.2656 6.11719L18.6775 4.90147L18.6754 4.90429L20.2656 6.11719ZM23.7031 13.6562L25.3816 14.7437L25.3872 14.7351L25.3928 14.7264L23.7031 13.6562ZM21.2031 19.0859L19.2697 18.5742L19.2662 18.5875L19.2628 18.6009L21.2031 19.0859ZM21.6328 24.2422L20.0476 25.4616L20.0566 25.4734L20.0658 25.485L21.6328 24.2422ZM28.0781 23.0703L26.4904 21.8542L26.4879 21.8574L28.0781 23.0703ZM30.1094 18.7344L28.1706 18.2432L28.1691 18.2493L30.1094 18.7344ZM30.4219 12.9531L32.3995 12.6551L32.3972 12.6397L32.3947 12.6243L30.4219 12.9531ZM29.4844 2.45312C30.4687 2.45312 31.1982 2.71734 31.783 3.17738C32.3926 3.65694 32.9852 4.4616 33.4698 5.76126L37.2177 4.36374C36.5565 2.59048 35.5996 1.09046 34.2561 0.0335598C32.8878 -1.04286 31.2605 -1.54688 29.4844 -1.54688V2.45312ZM33.4724 5.76811C33.9767 7.10574 34.2422 8.60816 34.2422 10.2969H38.2422C38.2422 8.1835 37.9087 6.19635 37.2151 4.35689L33.4724 5.76811ZM34.2422 10.2969C34.2422 11.9219 33.9981 13.7324 33.4844 15.7382L37.3593 16.7306C37.9394 14.4656 38.2422 12.3177 38.2422 10.2969H34.2422ZM33.4883 15.7233C32.5948 19.1039 31.05 22.223 28.8381 25.0911L32.0056 27.5339C34.5334 24.2561 36.3218 20.6565 37.3555 16.7454L33.4883 15.7233ZM28.8379 25.0915C26.1421 28.5887 23.602 29.9375 21.2422 29.9375V33.9375C25.3407 33.9375 28.9204 31.5363 32.0059 27.5335L28.8379 25.0915ZM21.2422 29.9375C20.2405 29.9375 19.4938 29.6706 18.8944 29.2053C18.2715 28.7218 17.6686 27.914 17.1734 26.6155L13.436 28.0408C14.1126 29.8151 15.0852 31.3121 16.4415 32.365C17.8213 33.4362 19.4574 33.9375 21.2422 33.9375V29.9375ZM17.1747 26.6188C16.7003 25.3683 16.4453 23.921 16.4453 22.25H12.4453C12.4453 24.329 12.7632 26.2671 13.4347 28.0374L17.1747 26.6188ZM16.4453 22.25C16.4453 20.6056 16.7004 18.7747 17.2379 16.7468L13.3714 15.722C12.7631 18.017 12.4453 20.1964 12.4453 22.25H16.4453ZM17.2392 16.742C18.1345 13.3303 19.6694 10.1968 21.8559 7.33009L18.6754 4.90429C16.1744 8.18336 14.402 11.7947 13.3702 15.7267L17.2392 16.742ZM21.8537 7.3329C24.548 3.8134 27.1001 2.45312 29.4844 2.45312V-1.54688C25.3583 -1.54688 21.7645 0.86889 18.6775 4.90147L21.8537 7.3329ZM28.0781 8.14062C25.5175 8.14062 23.5383 10.1785 22.0135 12.5861L25.3928 14.7264C26.8367 12.4465 27.7742 12.1406 28.0781 12.1406V8.14062ZM22.0246 12.5688C20.7344 14.5602 19.8022 16.5626 19.2697 18.5742L23.1365 19.5977C23.5416 18.0676 24.276 16.4502 25.3816 14.7437L22.0246 12.5688ZM19.2628 18.6009C18.9992 19.6552 18.8516 20.6682 18.8516 21.625H22.8516C22.8516 21.0714 22.9383 20.3916 23.1434 19.571L19.2628 18.6009ZM18.8516 21.625C18.8516 23.0216 19.1966 24.3553 20.0476 25.4616L23.2181 23.0228C23.0274 22.7749 22.8516 22.3639 22.8516 21.625H18.8516ZM20.0658 25.485C21.0884 26.7743 22.5296 27.375 24.1328 27.375V23.375C23.6007 23.375 23.3751 23.2204 23.1998 22.9994L20.0658 25.485ZM24.1328 27.375C26.406 27.375 28.2514 26.141 29.6684 24.2832L26.4879 21.8574C25.5611 23.0726 24.7763 23.375 24.1328 23.375V27.375ZM29.6659 24.2865C30.7877 22.8219 31.5743 21.1209 32.0497 19.2194L28.1691 18.2493C27.8111 19.6811 27.2436 20.8708 26.4904 21.8542L29.6659 24.2865ZM32.0481 19.2255C32.605 17.0272 32.7275 14.8317 32.3995 12.6551L28.4442 13.2511C28.6891 14.8766 28.6033 16.5353 28.1706 18.2432L32.0481 19.2255ZM32.3947 12.6243C32.2098 11.5149 31.849 10.4166 31.138 9.56338C30.3569 8.62601 29.28 8.14062 28.0781 8.14062V12.1406C28.1354 12.1406 28.1278 12.15 28.0896 12.1323C28.05 12.1141 28.0424 12.0968 28.0651 12.1241C28.1354 12.2084 28.3215 12.5164 28.4491 13.2819L32.3947 12.6243ZM38.3906 3.42188L38.0227 1.456L36.6602 1.71099L36.4207 3.07637L38.3906 3.42188ZM45.0703 2.17188L47.0044 2.68122L47.8094 -0.375413L44.7024 0.206001L45.0703 2.17188ZM41.0859 20.5312L39.1106 20.2179L38.547 23.7703L41.8621 22.3745L41.0859 20.5312ZM44.7969 18.9688L45.573 20.812L46.5778 20.3889L46.7666 19.3152L44.7969 18.9688ZM47.5312 3.42188L47.1634 1.456L45.8015 1.71086L45.5615 3.07543L47.5312 3.42188ZM54.2109 2.17188L56.1495 2.66362L56.9189 -0.369605L53.8431 0.206001L54.2109 2.17188ZM48.9375 29.3203L49.4678 31.2487L50.7788 30.8882L50.9258 29.5366L48.9375 29.3203ZM42.6875 31.0391L40.7192 30.6844L40.1561 33.8094L43.2178 32.9675L42.6875 31.0391ZM43.4688 26.7031L45.4371 27.0578L46.1039 23.357L42.6625 24.8728L43.4688 26.7031ZM33.5469 31.0391L31.5769 30.6936L30.9343 34.3576L34.3451 32.8729L33.5469 31.0391ZM38.7585 5.38775L45.4382 4.13775L44.7024 0.206001L38.0227 1.456L38.7585 5.38775ZM43.1363 1.66253C41.3269 8.5328 39.9829 14.7197 39.1106 20.2179L43.0612 20.8446C43.9077 15.5095 45.22 9.45678 47.0044 2.68122L43.1363 1.66253ZM41.8621 22.3745L45.573 20.812L44.0208 17.1255L40.3098 18.688L41.8621 22.3745ZM46.7666 19.3152L49.501 3.76832L45.5615 3.07543L42.8271 18.6223L46.7666 19.3152ZM47.8991 5.38775L54.5788 4.13775L53.8431 0.206001L47.1634 1.456L47.8991 5.38775ZM52.2723 1.68013C49.5507 12.4095 47.7701 21.5569 46.9492 29.104L50.9258 29.5366C51.7194 22.2399 53.4545 13.2884 56.1495 2.66362L52.2723 1.68013ZM48.4072 27.3919L42.1572 29.1107L43.2178 32.9675L49.4678 31.2487L48.4072 27.3919ZM44.6558 31.3937L45.4371 27.0578L41.5004 26.3485L40.7192 30.6844L44.6558 31.3937ZM42.6625 24.8728C40.4792 25.8345 37.1752 27.2784 32.7486 29.2053L34.3451 32.8729C38.7728 30.9455 42.0833 29.4988 44.275 28.5334L42.6625 24.8728ZM35.5168 31.3846L40.3606 3.76738L36.4207 3.07637L31.5769 30.6936L35.5168 31.3846ZM86.4766 1.9375L88.3479 2.64318L89.5568 -0.562599L86.1709 -0.0390072L86.4766 1.9375ZM78.625 29.2031L78.9595 31.175L80.3245 30.9434L80.5883 29.5842L78.625 29.2031ZM69.875 30.6875L67.8851 30.4869L67.6218 33.0983L70.2095 32.6593L69.875 30.6875ZM71.3203 16.3516L73.3102 16.5522L69.3912 15.8239L71.3203 16.3516ZM67.6875 29.6328L68.0477 31.6001L69.2848 31.3736L69.6166 30.1605L67.6875 29.6328ZM59.3672 31.1562L57.3833 30.903L57.0369 33.6162L59.7274 33.1235L59.3672 31.1562ZM61.2031 4.20312L60.8308 2.23809L59.1978 2.54749L59.2031 4.20949L61.2031 4.20312ZM68.625 2.79688L70.6171 2.97426L70.8517 0.339385L68.2527 0.831837L68.625 2.79688ZM67.1016 19.9062L65.1094 19.7289L69.0336 20.4231L67.1016 19.9062ZM72.1797 0.921875L71.8887 -1.05684L70.5875 -0.865487L70.2476 0.405065L72.1797 0.921875ZM76.1641 0.335938L78.1517 0.558215L78.44 -2.02027L75.8731 -1.64278L76.1641 0.335938ZM73.4688 24.4375L71.4811 24.2152L75.4069 24.9309L73.4688 24.4375ZM78.8984 3.10938L78.5928 1.13287L77.2864 1.33489L76.9603 2.61596L78.8984 3.10938ZM84.6052 1.23182C81.0539 10.6493 78.404 19.8465 76.6617 28.822L80.5883 29.5842C82.2835 20.8514 84.868 11.8715 88.3479 2.64318L84.6052 1.23182ZM78.2905 27.2313L69.5405 28.7157L70.2095 32.6593L78.9595 31.175L78.2905 27.2313ZM71.8649 30.8881L73.3102 16.5522L69.3304 16.1509L67.8851 30.4869L71.8649 30.8881ZM69.3912 15.8239L65.7584 29.1051L69.6166 30.1605L73.2494 16.8792L69.3912 15.8239ZM67.3273 27.6655L59.007 29.189L59.7274 33.1235L68.0477 31.6001L67.3273 27.6655ZM61.3511 31.4095C62.6099 21.5487 63.2295 12.4762 63.2031 4.19676L59.2031 4.20949C59.2289 12.2842 58.6245 21.1804 57.3833 30.903L61.3511 31.4095ZM61.5754 6.16816L68.9973 4.76191L68.2527 0.831837L60.8308 2.23809L61.5754 6.16816ZM66.6329 2.61949L65.1094 19.7289L69.0937 20.0836L70.6171 2.97426L66.6329 2.61949ZM69.0336 20.4231L74.1118 1.43868L70.2476 0.405065L65.1695 19.3894L69.0336 20.4231ZM72.4707 2.90059L76.455 2.31466L75.8731 -1.64278L71.8887 -1.05684L72.4707 2.90059ZM74.1765 0.11366L71.4811 24.2152L75.4564 24.6598L78.1517 0.558215L74.1765 0.11366ZM75.4069 24.9309L80.8366 3.60279L76.9603 2.61596L71.5306 23.9441L75.4069 24.9309ZM79.2041 5.08588L86.7822 3.91401L86.1709 -0.0390072L78.5928 1.13287L79.2041 5.08588ZM102.453 5.0625L100.579 5.76127L100.582 5.76811L102.453 5.0625ZM102.531 16.2344L104.465 16.7454L104.467 16.738L104.469 16.7306L102.531 16.2344ZM97.5312 26.3125L95.9475 25.0911L95.9472 25.0915L97.5312 26.3125ZM82.4141 27.3281L80.5441 28.0374L80.5453 28.0408L82.4141 27.3281ZM82.4141 16.2344L84.3473 16.7468L84.3486 16.742L82.4141 16.2344ZM87.375 6.11719L85.7869 4.90147L85.7848 4.90429L87.375 6.11719ZM90.8125 13.6562L92.491 14.7437L92.4966 14.7351L92.5021 14.7264L90.8125 13.6562ZM88.3125 19.0859L86.3791 18.5742L86.3756 18.5875L86.3722 18.6009L88.3125 19.0859ZM88.7422 24.2422L87.1569 25.4616L87.166 25.4734L87.1752 25.485L88.7422 24.2422ZM95.1875 23.0703L93.5997 21.8542L93.5973 21.8574L95.1875 23.0703ZM97.2188 18.7344L95.28 18.2432L95.2785 18.2493L97.2188 18.7344ZM97.5312 12.9531L99.5089 12.6551L99.5066 12.6397L99.504 12.6243L97.5312 12.9531ZM96.5938 2.45312C97.5781 2.45312 98.3075 2.71734 98.8923 3.17738C99.502 3.65694 100.095 4.4616 100.579 5.76126L104.327 4.36374C103.666 2.59048 102.709 1.09046 101.365 0.0335598C99.9971 -1.04286 98.3699 -1.54688 96.5938 -1.54688V2.45312ZM100.582 5.76811C101.086 7.10574 101.352 8.60816 101.352 10.2969H105.352C105.352 8.1835 105.018 6.19635 104.325 4.35689L100.582 5.76811ZM101.352 10.2969C101.352 11.9219 101.107 13.7324 100.594 15.7382L104.469 16.7306C105.049 14.4656 105.352 12.3177 105.352 10.2969H101.352ZM100.598 15.7233C99.7042 19.1039 98.1593 22.223 95.9475 25.0911L99.115 27.5339C101.643 24.2561 103.431 20.6565 104.465 16.7454L100.598 15.7233ZM95.9472 25.0915C93.2515 28.5887 90.7113 29.9375 88.3516 29.9375V33.9375C92.4501 33.9375 96.0298 31.5363 99.1153 27.5335L95.9472 25.0915ZM88.3516 29.9375C87.3498 29.9375 86.6031 29.6706 86.0038 29.2053C85.3809 28.7218 84.778 27.914 84.2828 26.6155L80.5453 28.0408C81.222 29.8151 82.1946 31.3121 83.5509 32.365C84.9307 33.4362 86.5668 33.9375 88.3516 33.9375V29.9375ZM84.2841 26.6188C83.8097 25.3683 83.5547 23.921 83.5547 22.25H79.5547C79.5547 24.329 79.8726 26.2671 80.5441 28.0374L84.2841 26.6188ZM83.5547 22.25C83.5547 20.6056 83.8098 18.7747 84.3473 16.7468L80.4808 15.722C79.8725 18.017 79.5547 20.1964 79.5547 22.25H83.5547ZM84.3486 16.742C85.2438 13.3303 86.7787 10.1968 88.9652 7.33009L85.7848 4.90429C83.2838 8.18336 81.5114 11.7947 80.4796 15.7267L84.3486 16.742ZM88.9631 7.3329C91.6573 3.8134 94.2094 2.45312 96.5938 2.45312V-1.54688C92.4677 -1.54688 88.8739 0.86889 85.7869 4.90147L88.9631 7.3329ZM95.1875 8.14062C92.6268 8.14062 90.6477 10.1785 89.1229 12.5861L92.5021 14.7264C93.946 12.4465 94.8836 12.1406 95.1875 12.1406V8.14062ZM89.134 12.5688C87.8438 14.5602 86.9115 16.5626 86.3791 18.5742L90.2459 19.5977C90.651 18.0676 91.3854 16.4502 92.491 14.7437L89.134 12.5688ZM86.3722 18.6009C86.1086 19.6552 85.9609 20.6682 85.9609 21.625H89.9609C89.9609 21.0714 90.0476 20.3916 90.2528 19.571L86.3722 18.6009ZM85.9609 21.625C85.9609 23.0216 86.3059 24.3553 87.1569 25.4616L90.3274 23.0228C90.1368 22.7749 89.9609 22.3639 89.9609 21.625H85.9609ZM87.1752 25.485C88.1978 26.7743 89.6389 27.375 91.2422 27.375V23.375C90.71 23.375 90.4845 23.2204 90.3092 22.9994L87.1752 25.485ZM91.2422 27.375C93.5154 27.375 95.3608 26.141 96.7777 24.2832L93.5973 21.8574C92.6704 23.0726 91.8856 23.375 91.2422 23.375V27.375ZM96.7753 24.2865C97.897 22.8219 98.6837 21.1209 99.159 19.2194L95.2785 18.2493C94.9205 19.6811 94.353 20.8708 93.5997 21.8542L96.7753 24.2865ZM99.1575 19.2255C99.7144 17.0272 99.8369 14.8317 99.5089 12.6551L95.5536 13.2511C95.7985 14.8766 95.7127 16.5353 95.28 18.2432L99.1575 19.2255ZM99.504 12.6243C99.3191 11.5149 98.9584 10.4166 98.2474 9.56338C97.4662 8.62601 96.3894 8.14062 95.1875 8.14062V12.1406C95.2448 12.1406 95.2372 12.15 95.199 12.1323C95.1594 12.1141 95.1518 12.0968 95.1745 12.1241C95.2447 12.2084 95.4309 12.5164 95.5585 13.2819L99.504 12.6243ZM105.656 3.53906L105.26 1.57878L103.922 1.84935L103.686 3.19328L105.656 3.53906ZM112.414 2.17188L114.41 2.30064L114.578 -0.306458L112.017 0.21159L112.414 2.17188ZM112.688 14.9453L114.68 14.7764L114.68 14.7712L112.688 14.9453ZM113.273 18.6562L111.346 19.1915L115.244 18.9998L113.273 18.6562ZM115.93 3.42188L115.564 1.45562L114.198 1.70972L113.959 3.07834L115.93 3.42188ZM122.648 2.17188L124.584 2.67397L125.374 -0.369471L122.283 0.205615L122.648 2.17188ZM117.336 29.3203L117.872 31.247L119.178 30.8835L119.324 29.5367L117.336 29.3203ZM111.164 31.0391L109.375 31.9335L110.112 33.408L111.701 32.9657L111.164 31.0391ZM110.656 29.6719L108.769 30.3348L108.773 30.3451L108.777 30.3554L110.656 29.6719ZM108.625 23.8906L110.512 23.2277L110.509 23.2195L110.506 23.2113L108.625 23.8906ZM108.039 22.0938L110 21.7015L106.07 21.7433L108.039 22.0938ZM106.75 31.0391L107.325 32.9547L108.596 32.5734L108.738 31.254L106.75 31.0391ZM100.5 32.9141L98.5301 32.5683L97.9697 35.7612L101.075 34.8297L100.5 32.9141ZM106.053 5.49935L112.811 4.13216L112.017 0.21159L105.26 1.57878L106.053 5.49935ZM110.418 2.04311C110.362 2.91481 110.336 4.11109 110.336 5.60938H114.336C114.336 4.13891 114.362 3.04352 114.41 2.30064L110.418 2.04311ZM110.336 5.60938C110.336 9.19222 110.454 12.3645 110.695 15.1194L114.68 14.7712C114.452 12.1615 114.336 9.10986 114.336 5.60938H110.336ZM110.695 15.1142C110.83 16.7118 111.039 18.0858 111.346 19.1915L115.2 18.121C114.987 17.3517 114.805 16.2518 114.68 14.7764L110.695 15.1142ZM115.244 18.9998L117.9 3.76541L113.959 3.07834L111.303 18.3127L115.244 18.9998ZM116.296 5.38813L123.014 4.13813L122.283 0.205615L115.564 1.45562L116.296 5.38813ZM120.712 1.66978C117.989 12.1722 116.195 21.3217 115.348 29.1039L119.324 29.5367C120.144 22.0064 121.892 13.0569 124.584 2.67397L120.712 1.66978ZM116.799 27.3936L110.628 29.1124L111.701 32.9657L117.872 31.247L116.799 27.3936ZM112.953 30.1446C112.991 30.2201 113.013 30.2793 113.002 30.251C113 30.2469 112.995 30.2333 112.984 30.2064C112.964 30.1535 112.934 30.0732 112.892 29.9618C112.81 29.7405 112.692 29.4168 112.536 28.9884L108.777 30.3554C108.933 30.7863 109.056 31.1202 109.143 31.3546C109.197 31.5019 109.299 31.7815 109.375 31.9335L112.953 30.1446ZM112.543 29.0089L110.512 23.2277L106.738 24.5536L108.769 30.3348L112.543 29.0089ZM110.506 23.2113C110.34 22.7524 110.215 22.3899 110.126 22.1182C110.082 21.9825 110.049 21.8774 110.027 21.7993C110.003 21.7144 109.998 21.6883 110 21.7015L106.078 22.486C106.166 22.9245 106.422 23.6791 106.744 24.5699L110.506 23.2113ZM106.07 21.7433C105.516 24.8579 105.079 27.8849 104.762 30.8241L108.738 31.254C109.046 28.4119 109.469 25.4754 110.008 22.4442L106.07 21.7433ZM106.175 29.1234L99.9253 30.9984L101.075 34.8297L107.325 32.9547L106.175 29.1234ZM102.47 33.2598L107.626 3.88484L103.686 3.19328L98.5301 32.5683L102.47 33.2598ZM123.977 24.6328L124.235 26.616L124.247 26.6144L124.259 26.6127L123.977 24.6328ZM126.398 25.0234L125.427 26.7718L125.465 26.7929L125.504 26.8123L126.398 25.0234ZM125.734 30.2578L124.509 28.6774L124.502 28.6827L124.495 28.688L125.734 30.2578ZM122.492 31.6641L122.228 29.6816L122.217 29.6831L122.492 31.6641ZM120.07 31.3516L119.153 33.1288L119.164 33.1347L119.176 33.1404L120.07 31.3516ZM120.695 26.0781L119.431 24.5284L119.425 24.5337L119.418 24.539L120.695 26.0781ZM128.391 0.335938L128.721 -1.63659L126.959 -1.93174L126.468 -0.213505L128.391 0.335938ZM136.555 1.70312L138.302 2.6764L139.682 0.198977L136.885 -0.269407L136.555 1.70312ZM131.789 10.8047L129.975 9.96246L129.973 9.96757L131.789 10.8047ZM128.117 20.5312L128.031 22.5294L129.577 22.5961L130.03 21.1164L128.117 20.5312ZM122.688 20.2969L120.764 19.7474L120.068 22.1857L122.601 22.295L122.688 20.2969ZM124.259 26.6127C124.804 26.5349 125.16 26.6231 125.427 26.7718L127.37 23.2751C126.231 22.6426 124.972 22.4703 123.694 22.6529L124.259 26.6127ZM125.504 26.8123C125.586 26.8533 125.629 26.8856 125.646 26.9006C125.662 26.9144 125.66 26.9155 125.651 26.9023C125.643 26.8887 125.64 26.8783 125.64 26.8799C125.641 26.8834 125.648 26.9124 125.648 26.9766H129.648C129.648 26.2087 129.464 25.4383 129.02 24.7461C128.581 24.0598 127.966 23.571 127.293 23.2346L125.504 26.8123ZM125.648 26.9766C125.648 27.3571 125.479 27.9251 124.509 28.6774L126.96 31.8383C128.542 30.6114 129.648 28.9918 129.648 26.9766H125.648ZM124.495 28.688C123.768 29.262 123.02 29.576 122.228 29.6816L122.757 33.6465C124.308 33.4396 125.722 32.8161 126.974 31.8276L124.495 28.688ZM122.217 29.6831C121.579 29.7717 121.199 29.6798 120.965 29.5627L119.176 33.1404C120.296 33.7004 121.53 33.8169 122.767 33.645L122.217 29.6831ZM120.988 29.5743C120.914 29.5363 120.877 29.5072 120.863 29.495C120.851 29.484 120.854 29.4845 120.862 29.4969C120.87 29.5095 120.871 29.517 120.869 29.5104C120.867 29.5019 120.859 29.4676 120.859 29.3984H116.859C116.859 30.1544 117.035 30.9159 117.462 31.6047C117.888 32.2906 118.488 32.7857 119.153 33.1288L120.988 29.5743ZM120.859 29.3984C120.859 28.9762 121.046 28.3857 121.972 27.6172L119.418 24.539C117.896 25.8018 116.859 27.4248 116.859 29.3984H120.859ZM121.96 27.6279C122.678 27.0417 123.428 26.7213 124.235 26.616L123.718 22.6496C122.13 22.8568 120.692 23.4999 119.431 24.5284L121.96 27.6279ZM128.06 2.30847L136.224 3.67566L136.885 -0.269407L128.721 -1.63659L128.06 2.30847ZM134.807 0.729848C132.638 4.62374 131.022 7.708 129.975 9.96247L133.603 11.6469C134.588 9.52637 136.148 6.54293 138.302 2.6764L134.807 0.729848ZM129.973 9.96757C128.551 13.0522 127.296 16.3794 126.205 19.9461L130.03 21.1164C131.074 17.7039 132.267 14.5468 133.605 11.6418L129.973 9.96757ZM128.203 18.5331L122.774 18.2987L122.601 22.295L128.031 22.5294L128.203 18.5331ZM124.611 20.8463L130.314 0.88538L126.468 -0.213505L120.764 19.7474L124.611 20.8463Z" fill="#F7931E" mask="url(#path-1-outside-1_2_15977)"/>
</svg>
