<svg width="17" height="16" viewBox="0 0 17 16" fill="none" xmlns="http://www.w3.org/2000/svg">
<g clip-path="url(#clip0_2_15050)">
<path d="M7.8627 9.825L2.7002 15.0625C2.5127 15.25 2.3002 15.375 2.0752 15.4375C2.5877 15.5875 3.1502 15.4625 3.5502 15.0625L8.3252 10.3C8.4252 10.2 8.5877 10.2 8.6752 10.3L8.2127 9.825C8.1252 9.725 7.9627 9.725 7.8627 9.825Z" fill="#EB5454"/>
<path d="M10.7875 8.17495C10.6875 8.07495 10.6875 7.92495 10.7875 7.82495L15.5625 3.06245C16.15 2.47495 16.15 1.52495 15.5625 0.937451C14.975 0.349951 14.0375 0.349951 13.45 0.937451L8.675 5.69995C8.575 5.79995 8.425 5.79995 8.325 5.69995L3.5625 0.937451C2.975 0.349951 2.025 0.349951 1.4375 0.937451C1.3875 0.987451 1.35 1.03745 1.3125 1.08745C1.3375 1.04995 1.3625 1.02495 1.3875 0.999951C1.975 0.424951 2.65 0.687451 3.2375 1.27495L7.9375 6.08745C8.0375 6.18745 8.1875 6.18745 8.2875 6.08745L13.2 1.18745C13.7875 0.599951 14.375 0.549951 14.9625 1.13745C15.55 1.72495 15.45 2.33745 14.8625 2.92495L9.95 7.82495C9.85 7.92495 9.85 8.07495 9.95 8.17495C9.95 8.17495 14.7125 12.95 14.7 12.95C15.2875 13.5375 15.5125 14.2 14.925 14.7875C14.3375 15.375 13.6 15.2249 13.0125 14.65L13.4375 15.075C14.025 15.6624 14.975 15.6624 15.5625 15.075C16.15 14.4875 16.15 13.55 15.5625 12.9625C15.5625 12.95 10.7875 8.17495 10.7875 8.17495Z" fill="#EB5454"/>
<path d="M14.9252 14.7875C15.5127 14.2 15.2877 13.5375 14.7002 12.95C14.7127 12.95 9.95019 8.17495 9.95019 8.17495C9.85019 8.07495 9.85019 7.92495 9.95019 7.82495L14.8627 2.92495C15.4502 2.33745 15.5502 1.72495 14.9627 1.13745C14.3752 0.549955 13.7877 0.599955 13.2002 1.18745L8.28769 6.08745C8.1877 6.18745 8.03769 6.18745 7.9377 6.08745L3.23769 1.27495C2.6502 0.687455 1.9752 0.424955 1.3877 0.999955C1.3627 1.02495 1.3377 1.04995 1.3127 1.08745C0.850195 1.67495 0.900195 2.51245 1.4377 3.04995L6.20019 7.82495C6.3002 7.92495 6.3002 8.08745 6.20019 8.17495L1.4377 12.9375C0.850195 13.525 0.850195 14.475 1.4377 15.0625C1.6252 15.25 1.8377 15.375 2.0627 15.4375C2.2877 15.3625 2.5127 15.2375 2.6877 15.0625L7.85019 9.82495C7.95019 9.72495 8.11269 9.72495 8.20019 9.82495L8.6627 10.3L13.0002 14.65C13.6002 15.225 14.3377 15.375 14.9252 14.7875Z" fill="#F56D63"/>
<path opacity="0.2" d="M7.37464 7.05C7.23714 6.85 3.33714 2.9125 3.33714 2.9125C3.33714 2.9125 3.04964 2.5875 2.74964 2.8125C2.47464 3.025 2.61214 3.35 2.76214 3.5125C2.91214 3.675 6.38714 7.225 6.56214 7.375C6.72464 7.525 7.04964 7.55 7.24964 7.45C7.44964 7.35 7.47464 7.1875 7.37464 7.05Z" fill="white"/>
<path opacity="0.2" d="M2.0248 2.78752C2.25262 2.78752 2.4373 2.60284 2.4373 2.37502C2.4373 2.14721 2.25262 1.96252 2.0248 1.96252C1.79699 1.96252 1.6123 2.14721 1.6123 2.37502C1.6123 2.60284 1.79699 2.78752 2.0248 2.78752Z" fill="white"/>
<path opacity="0.2" d="M9.51221 10.225C9.64971 10.425 13.6122 14.3 13.6122 14.3C13.6122 14.3 13.8997 14.625 14.1997 14.3875C14.4747 14.175 14.3247 13.85 14.1747 13.6875C14.0247 13.525 10.4997 10.025 10.3247 9.87504C10.1622 9.72504 9.83721 9.71254 9.63721 9.81254C9.43721 9.91254 9.41221 10.0875 9.51221 10.225Z" fill="white"/>
</g>
<defs>
<clipPath id="clip0_2_15050">
<rect width="16" height="16" fill="white" transform="translate(0.5)"/>
</clipPath>
</defs>
</svg>
