<svg width="32" height="32" viewBox="0 0 32 32" fill="none" xmlns="http://www.w3.org/2000/svg">
<rect width="32" height="32" rx="16" fill="#3861FB"/>
<path d="M12.6684 16.0036C12.6684 14.1622 14.1605 12.6697 16.0017 12.6697C17.8429 12.6697 19.335 14.1622 19.335 16.0036C19.335 17.8451 17.8429 19.3375 16.0017 19.3375C14.1605 19.3375 12.6684 17.8451 12.6684 16.0036ZM10.866 16.0036C10.866 18.8401 13.1641 21.1385 16 21.1385C18.836 21.1385 21.134 18.8401 21.134 16.0036C21.134 13.1672 18.836 10.8687 16 10.8687C13.1641 10.8687 10.866 13.1672 10.866 16.0036ZM20.1376 10.6647C20.1376 11.3274 20.6754 11.8654 21.338 11.8654C22.0007 11.8654 22.5385 11.3274 22.5385 10.6647C22.5385 10.002 22.0007 9.46401 21.338 9.46401C20.6754 9.46401 20.1376 10.002 20.1376 10.6647ZM11.9602 24.1436C10.9857 24.0998 10.4562 23.9362 10.1039 23.7996C9.63682 23.6175 9.30467 23.4016 8.95397 23.0509C8.60327 22.7001 8.38747 22.3679 8.20537 21.9008C8.0688 21.5483 7.90525 21.0188 7.86141 20.0441C7.81252 18.9901 7.8024 18.6731 7.8024 16.0036C7.8024 13.3342 7.81252 13.0171 7.86141 11.9632C7.90525 10.9885 8.0688 10.459 8.20537 10.1065C8.38747 9.6394 8.60327 9.30718 8.95397 8.95642C9.30467 8.60735 9.63682 8.38982 10.1039 8.2077C10.4562 8.0711 10.9857 7.90752 11.9602 7.86368C13.014 7.81477 13.331 7.80468 16 7.80468C18.669 7.80468 18.986 7.81477 20.0415 7.86368C21.016 7.90752 21.5454 8.0711 21.8978 8.2077C22.3649 8.38982 22.697 8.60566 23.0477 8.95642C23.3984 9.30718 23.6142 9.6394 23.7963 10.1065C23.9329 10.459 24.0964 10.9885 24.1403 11.9632C24.1892 13.0171 24.1976 13.3342 24.1976 16.0036C24.1976 18.6731 24.1875 18.9901 24.1403 20.0441C24.0964 21.0188 23.9329 21.5483 23.7963 21.9008C23.6142 22.3679 23.3984 22.7001 23.0477 23.0509C22.697 23.4016 22.3649 23.6175 21.8978 23.7996C21.5454 23.9362 21.016 24.0998 20.0415 24.1436C18.9877 24.1925 18.6707 24.2026 16 24.2026C13.3293 24.2026 13.014 24.1925 11.9602 24.1436ZM11.8776 6.06268C10.8137 6.11158 10.087 6.28022 9.44966 6.52642C8.7921 6.78106 8.23402 7.1234 7.67931 7.67989C7.12291 8.23639 6.78064 8.79288 6.52605 9.45055C6.2782 10.0863 6.10959 10.8131 6.0607 11.8789C6.0118 12.9463 6 13.2853 6 16.002C6 18.7186 6.0118 19.0593 6.0607 20.125C6.10959 21.1891 6.2782 21.916 6.52605 22.5517C6.78064 23.2094 7.12291 23.7676 7.67931 24.3224C8.2357 24.8789 8.7921 25.2195 9.44966 25.4758C10.0853 25.7237 10.812 25.8924 11.8776 25.9413C12.9449 25.9902 13.2855 26.002 16 26.002C18.7146 26.002 19.0568 25.9902 20.1224 25.9413C21.1863 25.8924 21.913 25.7237 22.5503 25.4758C23.2079 25.2195 23.766 24.8789 24.3207 24.3224C24.8771 23.7659 25.2177 23.2094 25.474 22.5517C25.7218 21.916 25.8904 21.1891 25.9393 20.125C25.9882 19.0576 26 18.7186 26 16.002C26 13.2853 25.9882 12.9446 25.9393 11.8789C25.8904 10.8148 25.7218 10.088 25.474 9.45055C25.2177 8.79288 24.8771 8.2347 24.3207 7.67989C23.7643 7.1234 23.2062 6.78106 22.5503 6.52642C21.9147 6.27853 21.188 6.1099 20.1224 6.06268C19.0551 6.01378 18.7162 6.00195 16 6.00195C13.2838 6.00195 12.9449 6.01378 11.8776 6.06268Z" fill="white"/>
</svg>
