<svg width="49" height="48" viewBox="0 0 49 48" fill="none" xmlns="http://www.w3.org/2000/svg">
<g clip-path="url(#clip0_1566_37032)">
<path d="M24.5 48C37.7548 48 48.5 37.2548 48.5 24C48.5 10.7452 37.7548 0 24.5 0C11.2452 0 0.5 10.7452 0.5 24C0.5 37.2548 11.2452 48 24.5 48Z" fill="#3861FB"/>
<g clip-path="url(#clip1_1566_37032)">
<path d="M24.0421 39.4528C24.0421 39.4528 24.9951 37.1336 24.9715 35.1832C29.0369 32.1417 32.6142 27.2789 32.6142 27.2789C32.6142 27.2789 33.3626 29.9826 31.3463 33.4751C27.892 39.4561 24.0421 39.4528 24.0421 39.4528ZM16.3112 30.1832C16.3112 30.1832 17.5122 22.7697 19.3352 19.6123C20.1554 18.1916 21.0234 16.9723 21.9352 15.969L32.8219 22.2544C32.4101 23.5475 31.7019 24.8592 30.8822 26.2789C29.0869 29.3884 23.2394 34.1832 23.2394 34.1832L16.3112 30.1832ZM26.3549 20.841C25.1398 20.1395 23.5855 20.5559 22.8836 21.7718C22.1821 22.9868 22.5981 24.5419 23.8131 25.2434C25.0282 25.9449 26.5833 25.529 27.2853 24.3131C27.9881 23.0978 27.5708 21.543 26.3549 20.841ZM32.1087 10.8212L33.5146 8.38141C33.6364 8.16997 33.9067 8.09744 34.118 8.21946C34.3292 8.3414 34.4016 8.61148 34.2796 8.82269L32.8715 11.2617C33.4393 12.54 34.9966 15.0508 33.6739 20.1102L23.6041 14.2965C27.2148 10.718 30.6044 10.9947 32.1087 10.8212ZM11.4101 32.1597C11.4101 32.1597 9.4176 28.79 12.8711 22.8084C14.8874 19.316 17.2698 19.1896 17.2698 19.1896C17.2698 19.1896 15.1805 24.1417 14.5792 29.1832C12.6375 30.5072 11.4101 32.1597 11.4101 32.1597ZM19.7514 37.558L19.0082 36.1786L16.9687 37.558L17.2761 35.1786L15.7099 35.2247L15.9898 33.0947L21.3288 36.1593L19.7514 37.558Z" fill="white"/>
</g>
</g>
<defs>
<clipPath id="clip0_1566_37032">
<rect width="48" height="48" fill="white" transform="translate(0.5)"/>
</clipPath>
<clipPath id="clip1_1566_37032">
<rect width="32" height="32" fill="white" transform="translate(8.5 8)"/>
</clipPath>
</defs>
</svg>
