<svg width="32" height="32" viewBox="0 0 32 32" fill="none" xmlns="http://www.w3.org/2000/svg">
<rect width="32" height="32" rx="16" fill="#3861FB"/>
<path d="M7.22727 14.9715L19.1405 10.2216C20.3172 9.72677 24.3043 8.14293 24.3043 8.14293C24.3043 8.14293 26.1448 7.45109 25.9909 9.13262C25.9396 9.82445 25.5307 12.2491 25.1219 14.8706L23.8442 22.6377C23.8442 22.6377 23.7416 23.7747 22.8727 23.9733C22.0038 24.1719 20.5721 23.2799 20.3156 23.0829C20.1104 22.934 16.4808 20.708 15.1518 19.6206C14.7943 19.3227 14.3855 18.7301 15.2031 18.0367C17.0435 16.4032 19.2415 14.3758 20.5721 13.0898C21.1862 12.4957 21.7986 11.1104 19.2415 12.792L12.032 17.4922C12.032 17.4922 11.2144 17.9871 9.6801 17.5418C8.1475 17.0966 6.3567 16.5025 6.3567 16.5025C6.3567 16.5025 5.13029 15.7611 7.22561 14.9683L7.22727 14.9715Z" fill="white"/>
</svg>
