<svg width="32" height="32" viewBox="0 0 32 32" fill="none" xmlns="http://www.w3.org/2000/svg">
<rect width="32" height="32" rx="16" fill="#3861FB"/>
<path d="M26.5399 11.1925C26.2863 10.332 25.5417 9.65357 24.5955 9.4245C22.8803 9.006 16 9.00598 16 9.00598C16 9.00598 9.11972 9.006 7.40453 9.4245C6.45833 9.65504 5.7121 10.332 5.46011 11.1925C5.00001 12.752 5 16.006 5 16.006C5 16.006 5.00001 19.26 5.46011 20.8195C5.71373 21.68 6.45833 22.3584 7.40453 22.5875C9.11972 23.006 16 23.006 16 23.006C16 23.006 22.8803 23.006 24.5955 22.5875C25.5417 22.3569 26.2879 21.68 26.5399 20.8195C27 19.26 27 16.006 27 16.006C27 16.006 27 12.752 26.5399 11.1925ZM13.7499 18.9605V13.0515L19.5003 16.006L13.7499 18.9605Z" fill="white"/>
</svg>
