<svg width="57" height="56" viewBox="0 0 57 56" fill="none" xmlns="http://www.w3.org/2000/svg">
<path d="M25.6914 25.8164H27.6133C28.1055 25.8164 28.5078 25.7305 28.8203 25.5586C29.1406 25.3789 29.3789 25.1289 29.5352 24.8086C29.6914 24.4805 29.7695 24.0938 29.7695 23.6484C29.7695 23.3047 29.6953 22.9883 29.5469 22.6992C29.4062 22.4102 29.1875 22.1797 28.8906 22.0078C28.5938 21.8281 28.2148 21.7383 27.7539 21.7383C27.4414 21.7383 27.1367 21.8047 26.8398 21.9375C26.543 22.0625 26.2969 22.2422 26.1016 22.4766C25.9141 22.7109 25.8203 22.9961 25.8203 23.332H21.8594C21.8594 22.3633 22.125 21.5352 22.6562 20.8477C23.1953 20.1523 23.9023 19.6211 24.7773 19.2539C25.6602 18.8789 26.6094 18.6914 27.625 18.6914C28.8359 18.6914 29.8984 18.8789 30.8125 19.2539C31.7266 19.6211 32.4375 20.168 32.9453 20.8945C33.4609 21.6133 33.7188 22.5039 33.7188 23.5664C33.7188 24.1523 33.582 24.7031 33.3086 25.2188C33.0352 25.7344 32.6523 26.1875 32.1602 26.5781C31.668 26.9688 31.0898 27.2773 30.4258 27.5039C29.7695 27.7227 29.0508 27.832 28.2695 27.832H25.6914V25.8164ZM25.6914 28.7578V26.7891H28.2695C29.1211 26.7891 29.8984 26.8867 30.6016 27.082C31.3047 27.2695 31.9102 27.5508 32.418 27.9258C32.9258 28.3008 33.3164 28.7656 33.5898 29.3203C33.8633 29.8672 34 30.4961 34 31.207C34 32.0039 33.8398 32.7148 33.5195 33.3398C33.1992 33.9648 32.75 34.4922 32.1719 34.9219C31.5938 35.3516 30.918 35.6797 30.1445 35.9062C29.3711 36.125 28.5312 36.2344 27.625 36.2344C26.9141 36.2344 26.2031 36.1406 25.4922 35.9531C24.7812 35.7578 24.1328 35.4609 23.5469 35.0625C22.9609 34.6562 22.4883 34.1406 22.1289 33.5156C21.7773 32.8828 21.6016 32.1289 21.6016 31.2539H25.5625C25.5625 31.6133 25.6602 31.9414 25.8555 32.2383C26.0586 32.5273 26.3281 32.7578 26.6641 32.9297C27 33.1016 27.3633 33.1875 27.7539 33.1875C28.2383 33.1875 28.6484 33.0977 28.9844 32.918C29.3281 32.7305 29.5898 32.4805 29.7695 32.168C29.9492 31.8555 30.0391 31.5078 30.0391 31.125C30.0391 30.5469 29.9414 30.0859 29.7461 29.7422C29.5586 29.3984 29.2812 29.1484 28.9141 28.9922C28.5547 28.8359 28.1211 28.7578 27.6133 28.7578H25.6914Z" fill="white"/>
<path d="M28.5 1.4C28.5 0.626801 29.1272 -0.00365191 29.8994 0.034989C34.2789 0.254125 38.5527 1.49933 42.3728 3.67832C46.599 6.08888 50.1241 9.55906 52.6008 13.7468C55.0774 17.9346 56.4201 22.6955 56.4965 27.5602C56.5656 31.9576 55.5979 36.3026 53.6801 40.2459C53.3419 40.9412 52.4873 41.1871 51.8098 40.8146C51.1322 40.4422 50.8887 39.5924 51.223 38.8952C52.9086 35.3798 53.7583 31.515 53.6969 27.6042C53.6281 23.2259 52.4197 18.9412 50.1907 15.1722C47.9617 11.4032 44.7891 8.27999 40.9856 6.11049C37.5881 4.1726 33.7919 3.05535 29.8993 2.83888C29.1273 2.79595 28.5 2.1732 28.5 1.4Z" fill="url(#paint0_linear_2_15501)"/>
<path d="M56.5 28C56.5 43.464 43.964 56 28.5 56C13.036 56 0.5 43.464 0.5 28C0.5 12.536 13.036 0 28.5 0C43.964 0 56.5 12.536 56.5 28ZM3.3 28C3.3 41.9176 14.5824 53.2 28.5 53.2C42.4176 53.2 53.7 41.9176 53.7 28C53.7 14.0824 42.4176 2.8 28.5 2.8C14.5824 2.8 3.3 14.0824 3.3 28Z" fill="white" fill-opacity="0.2"/>
<defs>
<linearGradient id="paint0_linear_2_15501" x1="28.5" y1="0" x2="28.5" y2="56" gradientUnits="userSpaceOnUse">
<stop stop-color="white"/>
<stop offset="1" stop-color="#FAD557"/>
</linearGradient>
</defs>
</svg>
