<svg id="Слой_1" data-name="Слой 1" xmlns="http://www.w3.org/2000/svg" viewBox="0 0 53.61 13.58"><defs><style>.cls-1{fill:#fff;}</style></defs><title>rocket-x-logo</title><path class="cls-1" d="M6,9.05a2.44,2.44,0,0,0,.47-1.53,2.56,2.56,0,0,0-.26-1.24,2,2,0,0,0-.69-.79,2.75,2.75,0,0,0-1-.42,5.46,5.46,0,0,0-1.23-.13H0v8.5H1.87V10H2.8l1.77,3.4H6.82L4.66,9.85A2.08,2.08,0,0,0,6,9.05Zm-1.62-1A.88.88,0,0,1,4,8.33a1.59,1.59,0,0,1-.51.11L3,8.46H1.87V6.52H3.1a4.56,4.56,0,0,1,.51,0,1.36,1.36,0,0,1,.47.14A.87.87,0,0,1,4.42,7a1,1,0,0,1,.13.52A.87.87,0,0,1,4.4,8.05Z"/><path class="cls-1" d="M12.87,8.29a3.13,3.13,0,0,0-1-.61,3.57,3.57,0,0,0-1.27-.22,3.48,3.48,0,0,0-1.26.22,3.17,3.17,0,0,0-1,.61,3,3,0,0,0-.69,1,3.3,3.3,0,0,0,0,2.52,3,3,0,0,0,.69,1,3.17,3.17,0,0,0,1,.61,3.48,3.48,0,0,0,1.26.22,3.57,3.57,0,0,0,1.27-.22,3.13,3.13,0,0,0,1-.61,3,3,0,0,0,.69-1,3.3,3.3,0,0,0,0-2.52A3,3,0,0,0,12.87,8.29Zm-1.24,3.3a1.37,1.37,0,0,1-1.06.41,1.39,1.39,0,0,1-1.06-.41,1.52,1.52,0,0,1-.38-1.07,1.52,1.52,0,0,1,.38-1.07A1.39,1.39,0,0,1,10.57,9a1.37,1.37,0,0,1,1.06.41A1.48,1.48,0,0,1,12,10.52,1.48,1.48,0,0,1,11.63,11.59Z"/><path class="cls-1" d="M17.93,9a1.14,1.14,0,0,1,.51.13,1,1,0,0,1,.38.32L20,8.24a2.32,2.32,0,0,0-1-.61,3.9,3.9,0,0,0-1.08-.17,3.57,3.57,0,0,0-1.27.22,3.13,3.13,0,0,0-1,.61,3,3,0,0,0-.69,1,3.3,3.3,0,0,0,0,2.52,3,3,0,0,0,.69,1,3.13,3.13,0,0,0,1,.61,3.57,3.57,0,0,0,1.27.22A3.9,3.9,0,0,0,19,13.41a2.32,2.32,0,0,0,1-.61l-1.18-1.25a1.43,1.43,0,0,1-.38.31.93.93,0,0,1-.51.14,1.37,1.37,0,0,1-1.06-.41,1.48,1.48,0,0,1-.38-1.07,1.48,1.48,0,0,1,.38-1.07A1.37,1.37,0,0,1,17.93,9Z"/><polygon class="cls-1" points="26.65 7.6 24.44 7.6 22.45 9.91 22.45 4.36 20.65 4.36 20.65 13.44 22.45 13.44 22.45 10.48 22.48 10.48 24.44 13.44 26.71 13.44 24.34 10.23 26.65 7.6"/><path class="cls-1" d="M32.38,8.29a2.32,2.32,0,0,0-.86-.61,2.79,2.79,0,0,0-1.14-.22,3.52,3.52,0,0,0-1.26.22,3,3,0,0,0-1,.61,2.69,2.69,0,0,0-.69,1,3.18,3.18,0,0,0,0,2.52,2.69,2.69,0,0,0,.69,1,3,3,0,0,0,1,.61,3.52,3.52,0,0,0,1.26.22,3.25,3.25,0,0,0,1.37-.3,2.78,2.78,0,0,0,1.09-.85l-1.26-.93a2,2,0,0,1-.53.51,1.27,1.27,0,0,1-.75.2,1.35,1.35,0,0,1-.89-.3,1.49,1.49,0,0,1-.47-.83h4.18v-.56a3.87,3.87,0,0,0-.19-1.26A2.79,2.79,0,0,0,32.38,8.29ZM28.94,9.86a1.19,1.19,0,0,1,.11-.41,1,1,0,0,1,.25-.35,1.53,1.53,0,0,1,.39-.25,1.44,1.44,0,0,1,.53-.09,1.06,1.06,0,0,1,.8.32,1,1,0,0,1,.3.78Z"/><path class="cls-1" d="M52.24,1.22l.34.28h0l.07,0a1.61,1.61,0,0,0,.12-.33c.27-.4.53-.8.82-1.2-.47.39-1.09,1-1.09,1l-.33.18.06.07S52.25,1.22,52.24,1.22Z"/><path class="cls-1" d="M36.6,5.88H34.8V7.6H33.65V9H34.8v2.78a1.8,1.8,0,0,0,.16.81,1.44,1.44,0,0,0,.45.55,1.86,1.86,0,0,0,.67.3,3.22,3.22,0,0,0,.84.1,4.68,4.68,0,0,0,.64,0,2.54,2.54,0,0,0,.62-.14V11.9a.63.63,0,0,1-.35.14l-.38,0A1.19,1.19,0,0,1,37,12a.57.57,0,0,1-.26-.22,1.13,1.13,0,0,1-.11-.34c0-.14,0-.28,0-.44V9h1.58V7.6H36.6Z"/><path class="cls-1" d="M45.28,4.94H42.93l2.28,3.3c.34-.54.69-1.09,1.07-1.65Z"/><path class="cls-1" d="M49.07,13.43h2.35L48.64,9.32c-.32.63-.61,1.28-.89,1.94Z"/><path class="cls-1" d="M51.25,2.2c-4,3.54-7.81,11.23-7.81,11.23h2.41A32.36,32.36,0,0,1,51.78,2.7l0-.05Z"/><path class="cls-1" d="M51.25,2.2c-4,3.54-7.81,11.23-7.81,11.23h2.41A32.36,32.36,0,0,1,51.78,2.7l0-.05Z"/><path class="cls-1" d="M42.25,9.9a.93.93,0,1,0-.93.93A.93.93,0,0,0,42.25,9.9Z"/></svg>