<svg width="65" height="105" viewBox="0 0 65 105" fill="none" xmlns="http://www.w3.org/2000/svg">
<g clip-path="url(#clip0_2_15802)">
<path d="M28.7371 55.5201C24.9786 50.6375 22.9167 45.7314 22.0516 39.6125C21.9577 38.949 21.5171 38.386 20.8956 38.1358C20.274 37.8855 19.5662 37.9858 19.0388 38.3989C18.9263 38.4871 16.2486 40.6045 13.3832 44.5754C10.7481 48.2272 7.42874 54.2319 6.58087 62.099C6.51362 62.7235 6.76349 63.3403 7.24661 63.7418C7.73536 64.1482 8.195 64.3086 9.195 63.7418C10.195 63.1751 12.5001 56 19.5001 56C26.5001 56 28.5001 58 29.036 57.2388C29.5718 56.4777 29.1135 56.009 28.7371 55.5201Z" fill="#FC495C"/>
<path d="M36.2629 55.5201C40.0214 50.6375 42.0833 45.7314 42.9484 39.6125C43.0423 38.949 43.4829 38.386 44.1044 38.1358C44.726 37.8855 45.4338 37.9858 45.9612 38.3989C46.0737 38.4871 48.7514 40.6045 51.6168 44.5754C54.2519 48.2272 57.5713 54.2319 58.4191 62.099C58.4864 62.7235 58.2365 63.3403 57.7534 63.7418C57.2646 64.1482 56.805 64.3086 55.805 63.7418C54.805 63.1751 52.4999 56 45.4999 56C38.4999 56 36.4999 58 35.964 57.2388C35.4282 56.4777 35.8865 56.009 36.2629 55.5201Z" fill="url(#paint0_linear_2_15802)"/>
<path d="M46.8749 31.9999C46.8749 39.3674 45.7625 45.2124 43.3725 50.3937C41.0387 55.4536 37.7 59.3924 34.375 62.8786C34.2 63.0624 34.0237 63.2461 33.8487 63.4274C33.4962 63.7936 33.0087 63.9999 32.5 63.9999C31.9912 63.9999 31.5037 63.7924 31.1512 63.4274C30.9725 63.2424 30.7975 63.0599 30.625 62.8786C28.7837 60.9436 27.325 59.2636 26.07 57.6324C21.895 52.2074 19.6037 46.7587 18.6437 39.9624C18.295 37.5012 18.125 34.8962 18.125 31.9999C18.125 20.4387 22.7512 9.27748 31.1512 0.572499C31.5037 0.20625 31.9912 0 32.5 0C33.0087 0 33.4962 0.20625 33.8487 0.572499C42.2487 9.27748 46.8749 20.4387 46.8749 31.9999Z" fill="#FD6B82"/>
<path d="M33.8487 0.572499C33.4962 0.20625 33.0087 0 32.5 0V63.9999C33.0087 63.9999 33.4962 63.7936 33.8487 63.4274C34.0237 63.2461 34.2 63.0624 34.375 62.8786C37.7 59.3924 41.0387 55.4536 43.3725 50.3937C45.7625 45.2124 46.875 39.3674 46.875 31.9999C46.875 20.4387 42.2487 9.27748 33.8487 0.572499Z" fill="url(#paint1_linear_2_15802)"/>
<path d="M36.3525 24.0209C35.4396 22.6466 34.0355 21.8584 32.5 21.8584C30.9645 21.8584 29.5603 22.6466 28.6475 24.0209C28.0744 24.8834 26.9106 25.1181 26.0481 24.5453C25.1856 23.9723 24.9509 22.8085 25.5238 21.9459C27.12 19.5429 29.7279 18.1084 32.5 18.1084C35.2721 18.1084 37.8801 19.543 39.4762 21.9459C40.0491 22.8085 39.8144 23.9723 38.9519 24.5453C38.0925 25.116 36.9279 24.8869 36.3525 24.0209Z" fill="#FAD557"/>
<path d="M34.375 40.8749V62.8786C34.2 63.0623 34.0237 63.2461 33.8487 63.4273C33.4962 63.7936 33.0087 63.9998 32.5 63.9998C31.9912 63.9998 31.5037 63.7923 31.1512 63.4273C30.9725 63.2423 30.7975 63.0598 30.625 62.8786V40.8749C30.625 39.8399 31.465 38.9999 32.5 38.9999C33.535 38.9999 34.375 39.8399 34.375 40.8749Z" fill="#FC495C"/>
<path d="M39.4764 21.9459C37.8801 19.5429 35.2722 18.1084 32.5 18.1084V21.8584C34.0355 21.8584 35.4397 22.6466 36.3525 24.0209C36.9279 24.8869 38.0925 25.116 38.9519 24.5453C39.8145 23.9723 40.0492 22.8086 39.4764 21.9459Z" fill="url(#paint2_linear_2_15802)"/>
<path d="M32.5 38.9999V63.9998C33.0087 63.9998 33.4962 63.7936 33.8487 63.4273C34.0237 63.2461 34.2 63.0623 34.375 62.8786V40.8749C34.375 39.8399 33.535 38.9999 32.5 38.9999Z" fill="url(#paint3_linear_2_15802)"/>
</g>
<g filter="url(#filter0_d_2_15802)">
<circle cx="25.5" cy="90" r="7" fill="white"/>
</g>
<g filter="url(#filter1_d_2_15802)">
<circle cx="38.5" cy="90" r="7" fill="white"/>
</g>
<g filter="url(#filter2_d_2_15802)">
<circle cx="32.5" cy="81" r="7" fill="white"/>
</g>
<g filter="url(#filter3_d_2_15802)">
<g filter="url(#filter4_d_2_15802)">
<path d="M35.5 66.4502C35.5 70.3162 34.1569 78.4502 32.5 78.4502C30.8431 78.4502 29.5 70.3162 29.5 66.4502C29.5 62.5842 30.8431 64.4502 32.5 64.4502C34.1569 64.4502 35.5 62.5842 35.5 66.4502Z" fill="#FAD557"/>
</g>
<g filter="url(#filter5_d_2_15802)">
<path d="M34.5 65.4676C34.5 67.0728 33.6046 70.4502 32.5 70.4502C31.3954 70.4502 30.5 67.0728 30.5 65.4676C30.5 63.8623 31.3954 64.6371 32.5 64.6371C33.6046 64.6371 34.5 63.8623 34.5 65.4676Z" fill="#FC495C"/>
</g>
</g>
<defs>
<filter id="filter0_d_2_15802" x="14.5" y="83" width="22" height="22" filterUnits="userSpaceOnUse" color-interpolation-filters="sRGB">
<feFlood flood-opacity="0" result="BackgroundImageFix"/>
<feColorMatrix in="SourceAlpha" type="matrix" values="0 0 0 0 0 0 0 0 0 0 0 0 0 0 0 0 0 0 127 0" result="hardAlpha"/>
<feOffset dy="4"/>
<feGaussianBlur stdDeviation="2"/>
<feColorMatrix type="matrix" values="0 0 0 0 0.392157 0 0 0 0 0.356863 0 0 0 0 0.972549 0 0 0 0.15 0"/>
<feBlend mode="normal" in2="BackgroundImageFix" result="effect1_dropShadow_2_15802"/>
<feBlend mode="normal" in="SourceGraphic" in2="effect1_dropShadow_2_15802" result="shape"/>
</filter>
<filter id="filter1_d_2_15802" x="27.5" y="83" width="22" height="22" filterUnits="userSpaceOnUse" color-interpolation-filters="sRGB">
<feFlood flood-opacity="0" result="BackgroundImageFix"/>
<feColorMatrix in="SourceAlpha" type="matrix" values="0 0 0 0 0 0 0 0 0 0 0 0 0 0 0 0 0 0 127 0" result="hardAlpha"/>
<feOffset dy="4"/>
<feGaussianBlur stdDeviation="2"/>
<feColorMatrix type="matrix" values="0 0 0 0 0.392157 0 0 0 0 0.356863 0 0 0 0 0.972549 0 0 0 0.15 0"/>
<feBlend mode="normal" in2="BackgroundImageFix" result="effect1_dropShadow_2_15802"/>
<feBlend mode="normal" in="SourceGraphic" in2="effect1_dropShadow_2_15802" result="shape"/>
</filter>
<filter id="filter2_d_2_15802" x="21.5" y="74" width="22" height="22" filterUnits="userSpaceOnUse" color-interpolation-filters="sRGB">
<feFlood flood-opacity="0" result="BackgroundImageFix"/>
<feColorMatrix in="SourceAlpha" type="matrix" values="0 0 0 0 0 0 0 0 0 0 0 0 0 0 0 0 0 0 127 0" result="hardAlpha"/>
<feOffset dy="4"/>
<feGaussianBlur stdDeviation="2"/>
<feColorMatrix type="matrix" values="0 0 0 0 0.392157 0 0 0 0 0.356863 0 0 0 0 0.972549 0 0 0 0.15 0"/>
<feBlend mode="normal" in2="BackgroundImageFix" result="effect1_dropShadow_2_15802"/>
<feBlend mode="normal" in="SourceGraphic" in2="effect1_dropShadow_2_15802" result="shape"/>
</filter>
<filter id="filter3_d_2_15802" x="25.5" y="64" width="14" height="22.4502" filterUnits="userSpaceOnUse" color-interpolation-filters="sRGB">
<feFlood flood-opacity="0" result="BackgroundImageFix"/>
<feColorMatrix in="SourceAlpha" type="matrix" values="0 0 0 0 0 0 0 0 0 0 0 0 0 0 0 0 0 0 127 0" result="hardAlpha"/>
<feOffset dy="4"/>
<feGaussianBlur stdDeviation="2"/>
<feColorMatrix type="matrix" values="0 0 0 0 0.988235 0 0 0 0 0.286275 0 0 0 0 0.360784 0 0 0 0.2 0"/>
<feBlend mode="normal" in2="BackgroundImageFix" result="effect1_dropShadow_2_15802"/>
<feBlend mode="normal" in="SourceGraphic" in2="effect1_dropShadow_2_15802" result="shape"/>
</filter>
<filter id="filter4_d_2_15802" x="25.5" y="64" width="14" height="22.4502" filterUnits="userSpaceOnUse" color-interpolation-filters="sRGB">
<feFlood flood-opacity="0" result="BackgroundImageFix"/>
<feColorMatrix in="SourceAlpha" type="matrix" values="0 0 0 0 0 0 0 0 0 0 0 0 0 0 0 0 0 0 127 0" result="hardAlpha"/>
<feOffset dy="4"/>
<feGaussianBlur stdDeviation="2"/>
<feColorMatrix type="matrix" values="0 0 0 0 0.988235 0 0 0 0 0.286275 0 0 0 0 0.360784 0 0 0 0.1 0"/>
<feBlend mode="normal" in2="BackgroundImageFix" result="effect1_dropShadow_2_15802"/>
<feBlend mode="normal" in="SourceGraphic" in2="effect1_dropShadow_2_15802" result="shape"/>
</filter>
<filter id="filter5_d_2_15802" x="26.5" y="64.4502" width="12" height="14" filterUnits="userSpaceOnUse" color-interpolation-filters="sRGB">
<feFlood flood-opacity="0" result="BackgroundImageFix"/>
<feColorMatrix in="SourceAlpha" type="matrix" values="0 0 0 0 0 0 0 0 0 0 0 0 0 0 0 0 0 0 127 0" result="hardAlpha"/>
<feOffset dy="4"/>
<feGaussianBlur stdDeviation="2"/>
<feColorMatrix type="matrix" values="0 0 0 0 0.988235 0 0 0 0 0.286275 0 0 0 0 0.360784 0 0 0 0.1 0"/>
<feBlend mode="normal" in2="BackgroundImageFix" result="effect1_dropShadow_2_15802"/>
<feBlend mode="normal" in="SourceGraphic" in2="effect1_dropShadow_2_15802" result="shape"/>
</filter>
<linearGradient id="paint0_linear_2_15802" x1="38.8659" y1="43.5" x2="58.3588" y2="64.1325" gradientUnits="userSpaceOnUse">
<stop stop-color="#E2395A"/>
<stop offset="1" stop-color="#7C1F31"/>
</linearGradient>
<linearGradient id="paint1_linear_2_15802" x1="32.5001" y1="32" x2="53.5001" y2="32" gradientUnits="userSpaceOnUse">
<stop stop-color="#FD6B82"/>
<stop offset="1" stop-color="#962B37"/>
</linearGradient>
<linearGradient id="paint2_linear_2_15802" x1="32.5001" y1="20.5001" x2="39.5001" y2="23.5001" gradientUnits="userSpaceOnUse">
<stop stop-color="#FAD557"/>
<stop offset="1" stop-color="#FF8000"/>
</linearGradient>
<linearGradient id="paint3_linear_2_15802" x1="32.5001" y1="51.4999" x2="35.0001" y2="51.4999" gradientUnits="userSpaceOnUse">
<stop stop-color="#FC495C"/>
<stop offset="1" stop-color="#7C1F31"/>
</linearGradient>
<clipPath id="clip0_2_15802">
<rect width="64" height="64" fill="white" transform="translate(0.5)"/>
</clipPath>
</defs>
</svg>
