<svg width="25" height="24" viewBox="0 0 25 24" fill="none" xmlns="http://www.w3.org/2000/svg">
<g clip-path="url(#clip0_2_14874)">
<path d="M12.25 24C18.8774 24 24.25 18.6274 24.25 12C24.25 5.37258 18.8774 0 12.25 0C5.62258 0 0.25 5.37258 0.25 12C0.25 18.6274 5.62258 24 12.25 24Z" fill="#0088CC"/>
<path fill-rule="evenodd" clip-rule="evenodd" d="M7.56214 6.28577H16.9538C17.3128 6.28577 17.6119 6.34316 17.9708 6.51534C18.3895 6.68751 18.6288 6.97448 18.7484 7.20405C18.7484 7.20405 18.7484 7.26144 18.8083 7.26144C18.9877 7.5484 19.1074 7.89275 19.1074 8.2945C19.1074 8.63885 19.0475 8.98321 18.8083 9.32756L12.8861 19.0843C12.7665 19.3138 12.5272 19.4286 12.2281 19.4286C11.9888 19.4286 11.7495 19.3138 11.5701 19.0843L5.76755 9.32756C5.64791 9.09799 5.40863 8.81103 5.40863 8.35189C5.34881 7.95015 5.46845 7.60579 5.64791 7.26144C5.82737 6.91708 6.12646 6.63012 6.5452 6.51534C6.90412 6.28577 7.32286 6.28577 7.56214 6.28577ZM11.5102 7.66318H7.56214C7.32286 7.66318 7.20322 7.66318 7.1434 7.72058C7.02376 7.77797 6.96394 7.83536 6.90412 7.95015C6.8443 8.00754 6.8443 8.12232 6.8443 8.23711C6.8443 8.2945 6.90412 8.35189 7.02376 8.58146L11.5102 16.0425V7.66318ZM12.9459 7.66318V16.0999L17.4922 8.58146C17.552 8.46668 17.552 8.35189 17.552 8.23711C17.552 8.12232 17.552 8.00754 17.4922 7.95015C17.4324 7.89275 17.4324 7.83536 17.3726 7.83536L17.3128 7.77797C17.1931 7.72058 17.0735 7.72058 16.894 7.72058H12.9459V7.66318Z" fill="white"/>
</g>
<defs>
<clipPath id="clip0_2_14874">
<rect width="24" height="24" fill="white" transform="translate(0.25)"/>
</clipPath>
</defs>
</svg>
