<?xml version="1.0" encoding="iso-8859-1"?>
<!-- Generator: Adobe Illustrator 19.0.0, SVG Export Plug-In . SVG Version: 6.00 Build 0)  -->
<svg version="1.1" id="Capa_1" xmlns="http://www.w3.org/2000/svg" xmlns:xlink="http://www.w3.org/1999/xlink" x="0px" y="0px"
	 viewBox="0 0 512 512" style="enable-background:new 0 0 512 512;" xml:space="preserve">
<style>path {fill: #2C41FF}</style>
<g>
	<g>
		<g>
			<path d="M312.942,424.774L276,461.28V276c0-11.046-8.954-20-20-20c-11.046,0-20,8.954-20,20v183.303l-34.942-34.529
				c-7.857-7.764-20.52-7.688-28.284,0.168c-7.764,7.857-7.688,20.52,0.168,28.284l41.589,41.098
				C225.878,505.724,240.955,512,257,512s31.122-6.276,42.469-17.676l41.589-41.098c7.856-7.764,7.932-20.427,0.168-28.284
				C333.461,417.085,320.799,417.009,312.942,424.774z"/>
			<path d="M492,276c-11.046,0-20,8.954-20,20c0,22.056-17.944,40-40,40h-96c-11.046,0-20,8.954-20,20c0,11.046,8.954,20,20,20h96
				c44.112,0,80-35.888,80-80C512,284.954,503.046,276,492,276z"/>
			<path d="M311.172,253.815c3.35,2.157,7.101,3.188,10.809,3.187c6.573,0,13.011-3.237,16.834-9.174
				C350.712,229.354,357,208.277,357,186.878c0-59.551-45.309-108-101-108c-55.691,0-101,48.449-101,108
				c0,22.906,5.798,43.438,17.233,61.024c6.021,9.26,18.41,11.886,27.669,5.865c9.26-6.021,11.886-18.409,5.865-27.669
				C198.623,215.109,195,201.915,195,186.878c0-37.495,27.364-68,61-68s61,30.505,61,68c0,13.702-4.085,27.29-11.815,39.293
				C299.205,235.459,301.885,247.835,311.172,253.815z"/>
			<circle cx="415" cy="187" r="20" fill="#2C41FF"/>
			<circle cx="97" cy="187" r="20" fill="#2C41FF"/>
			<path d="M432,0H80C35.888,0,0,35.888,0,80v216c0,44.112,35.888,80,80,80h96c11.046,0,20-8.954,20-20c0-11.046-8.954-20-20-20H80
				c-22.056,0-40-17.944-40-40V80c0-22.056,17.944-40,40-40h352c22.056,0,40,17.944,40,40v116c0,11.046,8.954,20,20,20
				c11.046,0,20-8.954,20-20V80C512,35.888,476.112,0,432,0z"/>
		</g>
	</g>
</g>
</svg>
